<?xml version="1.0" encoding="utf-8"?>
<!-- Generator: Adobe Illustrator 15.0.0, SVG Export Plug-In . SVG Version: 6.00 Build 0)  -->
<!DOCTYPE svg PUBLIC "-//W3C//DTD SVG 1.1//EN" "http://www.w3.org/Graphics/SVG/1.1/DTD/svg11.dtd">
<svg version="1.1" id="Layer_1" xmlns="http://www.w3.org/2000/svg" xmlns:xlink="http://www.w3.org/1999/xlink" x="0px" y="0px"
	 width="85px" height="66px" viewBox="0 0 85 66" enable-background="new 0 0 85 66" xml:space="preserve">
<g>
	<path fill="#D6BD05" d="M70.602,37.162c-0.092,0.037-2.259,0.918-4.078,1.736c-0.187,0.084-0.297,0.098-0.353,0.1l-5.382-5.916
		l-3.52-6.176l3.186-1.173l7.878,4.768c1.116,0.106,2.108-0.708,2.218-1.825c0.108-1.116-0.796-1.468-1.824-2.216l-8.803-4.858
		l-6.119,2.251c0.736-0.775,1.19-1.822,1.19-2.977c0-2.392-1.938-4.33-4.33-4.33c-2.394,0-4.331,1.938-4.331,4.33
		c0,2.234,1.691,4.071,3.861,4.306l-5.375,4.977l-0.139,0.052l-0.129,0.069c-0.025,0.015-0.051,0.028-0.074,0.038l-2.752-3.552
		c-0.712-0.866-1.992-0.989-2.857-0.276c-0.866,0.714-0.989,1.993-0.275,2.859l4.128,5.006c0.415,0.504,0.637,0.926,1.871,0.926
		c0.616,0,1.54-0.938,2.312-1.332l3.566-3.243l3.086,4.731c-1.082,0.617-2.291,1.312-3.048,1.76
		c-2.204,1.304-2.284,3.592-1.782,4.943l1.729,6.863c0.23,0.921,1.059,1.534,1.967,1.534c0.164,0,0.33-0.021,0.497-0.062
		c1.087-0.273,1.747-1.377,1.474-2.465l-1.76-6.992l0.016-0.099l-0.108-0.194c-0.001-0.002-0.001-0.008-0.002-0.012
		c0.011-0.007,0.024-0.015,0.039-0.023c1.567-0.928,5.276-3.028,5.313-3.049c0.355-0.201,0.627-0.496,0.801-0.834l4.414,4.852
		c0.511,0.619,1.597,1.396,3.076,1.396c0.606,0,1.28-0.131,2.008-0.459c1.748-0.785,3.916-1.666,3.938-1.677
		c1.039-0.421,1.539-1.604,1.117-2.646C72.823,37.24,71.641,36.74,70.602,37.162"/>
	<path fill="#D6BD05" d="M30.844,51.27c-1.33,0-2.491-0.854-2.89-2.123l-1.823-5.797c-0.332-0.35-1.062-1.014-2.404-1.789
		c-0.825-0.479-2.325-1.226-3.499-1.797l-2.893,5.316l-6.209,2.143c-0.317,0.11-0.65,0.166-0.988,0.166
		c-1.292,0-2.443-0.82-2.865-2.041C6.728,43.77,7.57,42.04,9.149,41.494l4.003-1.383l6.094-10.458l-1.077-0.035l-3.829,2.968
		c-0.537,0.416-1.178,0.636-1.854,0.636c-0.945,0-1.818-0.429-2.397-1.174c-1.024-1.322-0.782-3.229,0.539-4.253l5.553-4.303
		l6.784,0.216c-0.193-0.554-0.293-1.144-0.293-1.751c0-2.939,2.391-5.33,5.331-5.33c2.989,0,5.331,2.278,5.331,5.185
		c0,1.947-1.05,3.612-2.641,4.5c1.088,0.571,2.104,1.125,2.902,1.74c0.986,0.757,1.72,1.175,2.114,1.356l4.537-3.848
		c0.153-0.024,0.312-0.037,0.469-0.037c1.474,0,2.762,1.105,2.995,2.572c0.265,1.654-0.772,2.122-2.515,3.478l-5.657,4.066
		l-0.433-0.056c-0.517-0.065-2.422-0.446-5.205-2.587c-0.231-0.178-0.536-0.376-0.913-0.594l-2.462,3.773
		c0.084,0.048,0.165,0.095,0.241,0.14c3.158,1.828,4.359,3.496,4.651,3.963l0.206,0.33l2.113,6.72
		c0.501,1.592-0.389,3.297-1.982,3.799C31.456,51.223,31.151,51.27,30.844,51.27"/>
	<path fill="#FFFFFF" d="M9.476,42.439l4.354-1.504l7.125-12.227l-3.113-0.101l-4.114,3.189c-0.887,0.687-2.161,0.525-2.849-0.361
		c-0.686-0.887-0.525-2.162,0.362-2.849l5.269-4.084l7.543,0.242l0.298,0.105c0.102,0.036,0.338,0.12,0.671,0.244
		c-0.83-0.788-1.35-1.899-1.35-3.135c0-2.392,1.939-4.331,4.331-4.331s4.331,1.793,4.331,4.185c0,2.393-1.939,4.187-4.331,4.187
		H27.99c1.756,1,3.741,1.878,4.996,2.845c1.296,0.996,2.203,1.456,2.604,1.594l4.808-3.89c1.107-0.177,2.148,0.597,2.325,1.704
		c0.176,1.106-0.843,1.707-1.685,2.333l-5.516,4.044l-0.29-0.037c-0.323-0.041-2.075-0.352-4.722-2.388
		c-0.463-0.356-1.12-0.74-1.856-1.12l-3.56,5.458c0.44,0.229,0.844,0.448,1.171,0.639c3.039,1.76,4.12,3.332,4.306,3.629
		l0.137,0.222l2.075,6.597c0.336,1.069-0.259,2.209-1.328,2.546c-0.204,0.063-0.408,0.095-0.61,0.095
		c-0.863,0-1.664-0.556-1.936-1.422l-1.889-6.009c-0.296-0.342-1.118-1.176-2.791-2.146c-1.082-0.627-3.254-1.685-4.423-2.244
		l-3.163,5.812l-5.842,2.017c-0.22,0.076-0.443,0.111-0.662,0.111c-0.843,0-1.63-0.527-1.92-1.367
		C7.853,43.961,8.416,42.807,9.476,42.439"/>
</g>
</svg>
