<?xml version="1.0" encoding="utf-8"?>
<!-- Generator: Adobe Illustrator 15.0.0, SVG Export Plug-In . SVG Version: 6.00 Build 0)  -->
<!DOCTYPE svg PUBLIC "-//W3C//DTD SVG 1.1//EN" "http://www.w3.org/Graphics/SVG/1.1/DTD/svg11.dtd">
<svg version="1.1" id="Layer_1" xmlns="http://www.w3.org/2000/svg" xmlns:xlink="http://www.w3.org/1999/xlink" x="0px" y="0px"
	 width="85px" height="66px" viewBox="0 0 85 66" enable-background="new 0 0 85 66" xml:space="preserve">
<path fill="#FFFFFF" d="M32.4,17h-7.6c-2.64,0-4.8,1.7-4.8,3.9c0,0.48,0,1.039,0,1.617V22.9v6.183C20,29.861,20.638,31,21.417,31
	h0.166C22.362,31,23,29.861,23,29.083V23.7v-0.8v-0.383V22.3c0-0.329,0.17-0.6,0.5-0.6s0.5,0.271,0.5,0.6v1.4v-0.8l0,0v0.8v9v9.2
	c0,1.1,1.01,2,2,2s2-0.9,2-2v-5.4v-3.8v-1.6c0-0.33,0.07-0.1,0.4-0.1h0.2c0.33,0,0.4-0.23,0.4,0.1v1.6v3.8v5.4c0,1.1,1.01,2,2,2
	s2-0.9,2-2v-9.2v-9.8l0,0v-0.6c0-0.329,0.17-0.6,0.5-0.6s0.5,0.271,0.5,0.6v0.218V22.9v0.8v5.383C34,29.861,34.638,31,35.417,31
	h0.166C36.362,31,37,29.861,37,29.083V22.9v-0.383c0-0.578,0-1.137,0-1.617C37,18.7,35.04,17,32.4,17z"/>
<circle fill="#FFFFFF" cx="28.7" cy="12.3" r="3.7"/>
<path fill="#D6BD05" d="M32.4,16h-0.277c-0.386,0-0.845,0-1.355,1H32.4c2.64,0,4.6,1.7,4.6,3.9c0,0.48,0,1.039,0,1.617V22.9v6.183
	C37,29.861,36.362,31,35.583,31h-0.166C34.638,31,34,29.861,34,29.083V23.7v-0.8v-0.383V22.3c0-0.329-0.17-0.6-0.5-0.6
	S33,21.971,33,22.3v0.6l0,0v9.8v9.2c0,1.1-1.01,2-2,2s-2-0.9-2-2v-5.4v-3.8v-1.6c0-0.33-0.07-0.1-0.4-0.1h-0.2
	c-0.33,0-0.4-0.23-0.4,0.1v1.6v3.8v5.4c0,1.1-1.01,2-2,2s-2-0.9-2-2v-9.2v-9v-0.8l0,0v0.8v-1.4c0-0.329-0.17-0.6-0.5-0.6
	S23,21.971,23,22.3v0.218V22.9v0.8v5.383C23,29.861,22.362,31,21.583,31h-0.166C20.638,31,20,29.861,20,29.083V22.9v-0.383
	c0-0.578,0-1.137,0-1.617c0-2.2,2.16-3.9,4.8-3.9h1.833c-0.511-1-0.97-1-1.355-1H24.8c-3.09,0-5.8,2.023-5.8,4.9v8.183
	C19,30.416,20.084,32,21.417,32h0.166c0.528,0,1.019-0.671,1.417-0.96V41.9c0,1.598,1.402,3,3,3c1.016,0,1.952-0.566,2.5-1.393
	c0.548,0.823,1.484,1.393,2.5,1.393c1.598,0,3-1.402,3-3V31.04c0.398,0.289,0.889,0.96,1.417,0.96h0.166
	C36.916,32,38,30.416,38,29.083V20.9C38,18.292,35.75,16,32.4,16z M25,12.55c0-2.044,1.656-3.825,3.7-3.825
	c2.043,0,3.7,1.844,3.7,3.888c0,1.376-0.76,2.388-1.875,3.388h1.598c0.786-1,1.277-2.211,1.277-3.45c0-2.591-2.108-4.825-4.7-4.825
	c-2.592,0-4.7,2.295-4.7,4.886C24,13.852,24.491,15,25.277,16h1.597C25.76,15,25,13.926,25,12.55z M26.633,17h4.135
	c0.511-1,0.97-1,1.355-1h-1.598c-0.54,0-1.158,0.5-1.825,0.5c-0.668,0-1.285-0.5-1.826-0.5h-1.597C25.663,16,26.122,16,26.633,17z
	 M28.7,17.5c0.745,0,1.44-0.5,2.067-0.5h-4.135C27.26,17,27.955,17.5,28.7,17.5z"/>
<path fill="#D6BD05" d="M55.426,59c-1.457-1-3.012-0.825-4.656-1.436c-1.103-0.406-2.242-0.955-3.289-1.17
	c-1.222-0.25-2.528-1.021-4.049-1.845c-1.07-0.577-2.178-1.209-3.229-1.62c-2.304-0.904-3.334-2.723-4.161-4.166
	c-0.532-0.934-0.993-1.742-1.72-2.324l-1.106-0.889l0.453-1.244C34.139,42.953,36.158,42,38.077,42c0.042,0,0.084,0,0.126,0
	c-3.524-4-7.512-7.482-9.376-9.635c-1.812-2.096-2.753-5.408-0.543-7.523c0.688-0.66,1.56-1.058,2.518-1.058
	c1.81,0,3.453,1.21,4.683,2.286c0.725,0.635,1.527,1.317,2.369,2.047c1.986,1.721,4.203,3.635,6.126,5.388
	c0.557-0.522,1.353-1.233,2.328-1.995c0.742-0.58,1.717-0.889,2.812-0.889c0.564,0,1.113,0.079,1.611,0.229
	c1.731-1.481,2.084-1.669,2.229-1.749c0.742-0.396,1.608-0.605,2.509-0.605c1.258,0,2.467,0.416,3.461,1.169
	c0.799-0.203,1.866-0.421,2.771-0.421c2.123,0,3.619,1.879,4.802,3.716c3.851,5.985,4.729,8.418,3.87,14.517
	C69.588,53.051,67.198,59,55.451,59C55.449,59,55.426,59,55.426,59z"/>
<path fill="#FFFFFF" d="M55.426,58c-1.277-1-2.75-0.795-4.309-1.372c-1.139-0.421-2.315-0.981-3.438-1.212
	c-1.076-0.221-2.324-0.96-3.771-1.742c-1.098-0.594-2.232-1.238-3.342-1.675c-1.976-0.774-2.869-2.354-3.658-3.731
	c-0.559-0.978-1.088-1.908-1.964-2.605l-0.554-0.445l0.221-0.771c0.301-0.86,1.846-1.826,3.466-1.826
	c0.605,0,1.196,0.128,1.755,0.384c0.35,0.158,0.711,0.438,1.17,0.797c0.697,0.542,1.631,1.271,2.448,1.418
	C39.816,41.802,32.338,34.7,29.583,31.52c-1.511-1.748-2.346-4.388-0.607-6.051c0.5-0.479,1.132-0.732,1.826-0.732
	c1.493,0,3.013,1.177,4.024,2.063c0.726,0.636,1.529,1.332,2.373,2.063c2.227,1.929,4.743,4.108,6.801,6.015
	c0.338-0.348,1.4-1.396,2.922-2.58c0.717-0.559,1.594-0.676,2.201-0.676c0.557,0,1.236,0.104,1.822,0.368
	c0.937-0.811,2.119-1.807,2.49-2.006c0.598-0.318,1.301-0.487,2.035-0.487c1.193,0,2.338,0.456,3.223,1.271
	c0.742-0.209,2.017-0.521,3.012-0.521c1.643,0,2.924,1.646,3.961,3.258c3.748,5.827,4.541,8.029,3.721,13.834
	C68.621,52.744,66.404,58,55.451,58C55.449,58,55.426,58,55.426,58z"/>
</svg>
