<?xml version="1.0" encoding="utf-8"?>
<!-- Generator: Adobe Illustrator 15.0.0, SVG Export Plug-In . SVG Version: 6.00 Build 0)  -->
<!DOCTYPE svg PUBLIC "-//W3C//DTD SVG 1.1//EN" "http://www.w3.org/Graphics/SVG/1.1/DTD/svg11.dtd">
<svg version="1.1" id="Layer_1" xmlns="http://www.w3.org/2000/svg" xmlns:xlink="http://www.w3.org/1999/xlink" x="0px" y="0px"
	 width="76px" height="66px" viewBox="0 0 76 66" enable-background="new 0 0 76 66" xml:space="preserve">
<g>
	<path fill="#308BA0" d="M25,29c0-2.209-1.791-4-4-4h-1c-2.209,0-4,1.791-4,4v8c0,2.209,1.791,4,4,4h1c2.209,0,4-1.791,4-4V29z"/>
	<path fill="#FFFFFF" d="M24,29c0-1.657-1.343-3-3-3h-1c-1.657,0-3,1.343-3,3v8c0,1.657,1.343,3,3,3h1c1.657,0,3-1.343,3-3V29z"/>
</g>
<g>
	<path fill="#308BA0" d="M35,29c0-2.209-1.791-4-4-4h-1c-2.209,0-4,1.791-4,4v8c0,2.209,1.791,4,4,4h1c2.209,0,4-1.791,4-4V29z"/>
	<path fill="#FFFFFF" d="M34,29c0-1.657-1.343-3-3-3h-1c-1.657,0-3,1.343-3,3v8c0,1.657,1.343,3,3,3h1c1.657,0,3-1.343,3-3V29z"/>
</g>
<g id="Layer_2">
	<g id="fd">
		<g>
			<path fill="#308BA0" d="M36.137,28.31c0-0.876,0.26-1.688,0.924-2.288c0.779-0.703,1.837-1.037,2.996-0.916l2.586,0.48
				c0.54,0.056,1.004-0.063,1.295-0.325c0.184-0.165,0.27-0.376,0.27-0.626c0-0.043-0.27-4.227-0.27-4.227
				c-0.016-0.109-0.025-0.275-0.025-0.439c0-1.674,1.173-3.631,4.479-3.631c3.572,0,12.592,10.471,15.348,13.774
				c0.726,0.676,1.121,1.569,1.121,2.528c0,0.957-0.396,1.851-1.115,2.522C61.775,37.602,52.408,48.94,48.391,48.94
				c-1.434,0-2.554-0.325-3.33-0.971c-0.756-0.627-1.154-1.522-1.154-2.597l0,0c0-0.185,0.013-0.373,0.035-0.562l0.246-3.979
				c0.012-0.104,0.014-0.146,0.014-0.188c0-0.25-0.094-0.46-0.275-0.626c-0.292-0.262-0.77-0.381-1.309-0.322l-2.612,0.479
				c-1.159,0.117-2.163-0.217-2.942-0.917c-0.666-0.595-0.926-1.407-0.926-2.284V28.31z"/>
		</g>
		<g>
			<path fill="#FFFFFF" d="M63.013,34.479c1.129-1.011,1.129-2.664,0-3.674c0,0-11.221-13.467-14.623-13.467
				c-2.549,0-3.66,1.354-3.457,3.008l0.252,4.037c0.166,1.379-1.034,2.367-2.672,2.197L39.9,26.1
				c-1.638-0.17-2.764,0.654-2.764,2.041v9c0,1.387,1.126,2.212,2.764,2.042l2.612-0.479c1.638-0.17,2.838,0.817,2.672,2.196
				l-0.252,4.037c-0.203,1.654,0.674,3.009,3.457,3.009C52.167,47.945,63.013,34.479,63.013,34.479z"/>
		</g>
	</g>
</g>
</svg>
