<?xml version="1.0" encoding="utf-8"?>
<!-- Generator: Adobe Illustrator 16.0.0, SVG Export Plug-In . SVG Version: 6.00 Build 0)  -->
<!DOCTYPE svg PUBLIC "-//W3C//DTD SVG 1.1//EN" "http://www.w3.org/Graphics/SVG/1.1/DTD/svg11.dtd">
<svg version="1.1" xmlns="http://www.w3.org/2000/svg" xmlns:xlink="http://www.w3.org/1999/xlink" x="0px" y="0px" width="76px"
	 height="66px" viewBox="0 0 76 66" enable-background="new 0 0 76 66" xml:space="preserve">
<g id="Layer_1">
</g>
<g id="Layer_2">
	<g>
		<g opacity="0.25">
			<g>
				<path fill="#FF61F8" d="M23.25,45.543c0.622,0,1.27-0.272,1.625-0.735c0.355,0.463,0.69,0.735,1.313,0.735
					c1.178,0,1.813-0.976,1.813-2.372v-7.188c1,0.171,0.652,0.268,1.031,0.268c1.123,0,1.969-0.856,1.969-1.992v-4.36
					C31,27.784,29.834,27,27.539,27h-5.216C20.072,27,18,27.75,18,29.897v4.36c0,1.08,0.916,1.992,2,1.992c0.361,0,1-0.102,1-0.276
					v7.197C21,44.567,22.072,45.543,23.25,45.543z"/>
				<path fill="#FFFFFF" d="M22.323,28h5.216C29.351,28,30,28.388,30,29.897c0,0.33,0,0.714,0,1.11v1.007v2.243
					c0,0.535-0.344,0.992-0.969,0.992S28,34.793,28,34.258v-1.693v-0.55v-1.007v-0.149c0-0.227-0.273-0.412-0.5-0.412
					S27,30.632,27,30.858v0.96v0.824v-0.628v0.55v6.176v4.431c0,0.755-0.321,1.372-1,1.372c-0.68,0-1-0.617-1-1.372v-1.823V38.74
					v-1.099C25,37.415,25.295,38,25.068,38h-0.137C24.705,38,24,37.415,24,37.642v1.099v2.607v1.823c0,0.755-0.32,1.372-1,1.372
					c-0.679,0-1-0.617-1-1.372V38.74v-6.726v0.628v-1.784c0-0.227-0.273-0.412-0.5-0.412S21,30.632,21,30.858v0.149v1.007v0.55
					v1.693c0,0.535-0.465,0.992-1,0.992s-1-0.457-1-0.992v-2.243v-1.007c0-0.396,0-0.78,0-1.11C19,28.388,20.512,28,22.323,28z"/>
			</g>
			<path fill="#FF61F8" d="M24.862,27.535c1.952,0,3.54-1.588,3.54-3.539c0-1.952-1.588-3.539-3.54-3.539s-3.539,1.587-3.539,3.539
				C21.323,25.947,22.91,27.535,24.862,27.535z"/>
			<circle fill="#FFFFFF" cx="24.862" cy="23.996" r="2.539"/>
		</g>
		<g opacity="0.5">
			<g>
				<path fill="#FF61F8" d="M32.688,50.738c0.762,0,1.683-0.426,2.094-1.043c0.411,0.617,1.16,1.043,1.922,1.043
					c1.198,0,2.297-1.053,2.297-2.25V35.843C39,36.06,39.792,37,40.188,37h0.125c1,0,1.688-1.625,1.688-2.625v-9.137
					C42,23.08,40.093,22,37.775,22h-5.701C29.563,22,27,23.281,27,25.238v9.137c0,1,1.688,2.625,2.688,2.625h0.125
					C30.208,37,30,36.06,30,35.843v12.646C30,49.686,31.489,50.738,32.688,50.738z"/>
				<path fill="#FFFFFF" d="M32.075,23h5.701C39.755,23,41,23.588,41,25.238c0,0.359,0,0.779,0,1.213v3.287v4.637
					C41,34.959,40.896,36,40.313,36h-0.125C39.604,36,39,34.959,39,34.375v-4.037v-0.6v-3.287v-0.164c0-0.246-0.252-0.449-0.5-0.449
					S38,26.041,38,26.287v1.051v0.9v1.5v0.6v6.75v11.4c0,0.824-0.757,1.5-1.5,1.5s-1.5-0.676-1.5-1.5v-8.551v-2.85v-1.201
					C35,35.64,35.322,36,35.075,36h-0.149C34.678,36,34,35.64,34,35.887v1.201v2.85v8.551c0,0.824-0.757,1.5-1.5,1.5
					s-1.5-0.676-1.5-1.5v-11.4v-7.35v-1.5v-1.951c0-0.246-0.252-0.449-0.5-0.449S30,26.041,30,26.287v0.164v3.287v0.6v4.037
					C30,34.959,30.396,36,29.813,36h-0.125C29.104,36,28,34.959,28,34.375v-4.637v-3.287c0-0.434,0-0.854,0-1.213
					C28,23.588,30.095,23,32.075,23z"/>
			</g>
			<path fill="#FF61F8" d="M34.85,22.313c1.944,0,3.525-1.581,3.525-3.525c0-1.943-1.581-3.525-3.525-3.525
				c-1.943,0-3.525,1.582-3.525,3.525C31.325,20.731,32.906,22.313,34.85,22.313z"/>
			<circle fill="#FFFFFF" cx="34.85" cy="18.787" r="2.775"/>
		</g>
		<g>
			<g>
				<path fill="#AB55A1" d="M45.25,56.65c1.016,0,2.077-0.566,2.625-1.39c0.548,0.823,1.297,1.39,2.313,1.39
					c1.598,0,2.813-1.402,2.813-3V36.79c1,0.289,1.389,1.21,1.917,1.21h0.166C56.416,38,57,36.166,57,34.833V22.65
					c0-2.877-2.21-4.65-5.3-4.65H44.1c-3.35,0-6.1,2.042-6.1,4.65v12.183C38,36.166,39.584,38,40.917,38h0.166
					C41.611,38,42,37.079,42,36.79v16.86C42,55.248,43.652,56.65,45.25,56.65z"/>
				<path fill="#FFFFFF" d="M44.1,19H51.7c2.64,0,4.3,1.45,4.3,3.65c0,0.48,0,1.039,0,1.617v4.383v6.183
					C56,35.612,55.862,37,55.083,37h-0.166C54.138,37,53,35.612,53,34.833V29.45v-0.8v-4.383V24.05c0-0.329-0.17-0.6-0.5-0.6
					s-0.5,0.271-0.5,0.6v1.4v1.2v2v0.8v9v15.2c0,1.1-1.01,2-2,2s-2-0.9-2-2v-11.4v-3.8V36.85c0-0.33,0.43,0.15,0.1,0.15H47.9
					c-0.33,0-0.9-0.48-0.9-0.15v1.601v3.8v11.4c0,1.1-1.01,2-2,2s-2-0.9-2-2v-15.2v-9.8v-2V24.05c0-0.329-0.17-0.6-0.5-0.6
					s-0.5,0.271-0.5,0.6v0.218v4.383v0.8v5.383C42,35.612,41.862,37,41.083,37h-0.166C40.138,37,39,35.612,39,34.833V28.65v-4.383
					c0-0.578,0-1.137,0-1.617C39,20.45,41.46,19,44.1,19z"/>
			</g>
			<path fill="#AB55A1" d="M47.8,18.75c2.592,0,4.7-2.108,4.7-4.7c0-2.591-2.108-4.7-4.7-4.7s-4.7,2.109-4.7,4.7
				C43.1,16.642,45.208,18.75,47.8,18.75z"/>
			<circle fill="#FFFFFF" cx="47.8" cy="14.05" r="3.7"/>
		</g>
	</g>
</g>
</svg>
