<?xml version="1.0" encoding="utf-8"?>
<!-- Generator: Adobe Illustrator 15.0.0, SVG Export Plug-In . SVG Version: 6.00 Build 0)  -->
<!DOCTYPE svg PUBLIC "-//W3C//DTD SVG 1.1//EN" "http://www.w3.org/Graphics/SVG/1.1/DTD/svg11.dtd">
<svg version="1.1" xmlns="http://www.w3.org/2000/svg" xmlns:xlink="http://www.w3.org/1999/xlink" x="0px" y="0px" width="76px"
	 height="66px" viewBox="0 0 76 66" enable-background="new 0 0 76 66" xml:space="preserve">
<g id="Layer_1">
	<path fill="#308BA0" d="M27.95,53.945c-1.071,0-2.075-0.414-2.829-1.168L23,50.657l-2.122,2.12
		c-0.753,0.754-1.758,1.168-2.828,1.168c-1.071,0-2.075-0.414-2.829-1.168c-1.559-1.562-1.559-4.096,0-5.656L17.343,45l-2.121-2.121
		c-1.56-1.561-1.56-4.098,0-5.656c0.753-0.754,1.757-1.168,2.828-1.168c1.071,0,2.075,0.414,2.829,1.168L23,39.343l2.121-2.12
		c0.753-0.754,1.757-1.168,2.828-1.168c1.071,0,2.075,0.414,2.829,1.168c1.56,1.56,1.56,4.098,0,5.656L28.657,45l2.121,2.121
		c1.56,1.561,1.56,4.098,0,5.656C30.024,53.531,29.02,53.945,27.95,53.945z"/>
	<path fill="#FFFFFF" d="M27.243,45l2.828-2.828c1.167-1.167,1.167-3.076,0-4.242s-3.076-1.166-4.243,0L23,40.757l-2.829-2.827
		c-1.167-1.166-3.076-1.166-4.243,0s-1.167,3.075,0,4.242L18.757,45l-2.828,2.828c-1.167,1.168-1.167,3.076,0,4.242
		c1.167,1.168,3.076,1.168,4.243,0L23,49.243l2.828,2.827c1.167,1.168,3.076,1.168,4.243,0c1.167-1.166,1.167-3.075,0-4.242
		L27.243,45z"/>
	<g>
		<circle fill="#308BA0" cx="35" cy="45" r="3"/>
		<circle fill="#FFFFFF" cx="35" cy="45" r="2"/>
	</g>
	<g>
		<circle fill="#308BA0" cx="40" cy="45" r="3"/>
		<circle fill="#FFFFFF" cx="40" cy="45" r="2"/>
	</g>
	<g>
		<circle fill="#308BA0" cx="45" cy="45" r="3"/>
		<circle fill="#FFFFFF" cx="45" cy="45" r="2"/>
	</g>
	<g>
		<circle fill="#308BA0" cx="50" cy="45" r="3"/>
		<circle fill="#FFFFFF" cx="50" cy="45" r="2"/>
	</g>
	<path fill="#308BA0" d="M47.143,38.557l0.832-0.701c0.195-0.164,0.389-0.332,0.571-0.516c1.698-1.697,2.632-3.958,2.632-6.365
		c0-2.406-0.935-4.667-2.631-6.363c-1.675-1.675-3.904-2.598-6.281-2.598c-2.445,0-4.793,0.947-6.447,2.598l-0.744,0.744
		l-0.041,0.032c-0.049,0.148,0.193,0.686,0.61,1.012l2.085,1.838c0.59,0.459,0.966,1.146,1.012,1.896
		c0.038,0.625-0.136,1.59-1.181,2.635c-0.554,0.554-1.815,1.189-6.693,1.189c-3.384,0-6.903-0.3-7.408-0.345l-0.071,0.002
		c-0.745,0-1.429-0.29-1.928-0.816c-0.481-0.509-0.734-1.18-0.717-1.899c-0.311-2.908-1.119-12.136,0.846-14.102
		c0.814-0.813,1.647-1.227,2.477-1.227c0.805,0,1.528,0.383,2.093,1.106l1.761,1.993c0.261,0.329,0.52,0.458,0.631,0.458
		c0.039,0,0.09-0.053,0.126-0.097c0.052-0.06,0.518-0.548,0.808-0.814c3.857-3.857,8.728-5.999,13.685-5.999
		c4.596,0,9.016,1.891,12.447,5.322c7.408,7.408,7.408,19.462,0,26.87c-0.146,0.146-0.299,0.279-0.453,0.415l-0.92,0.834
		L47.143,38.557z"/>
	<path fill="#FFFFFF" d="M54.91,18.247c-7.071-7.071-17.493-6.549-24.749,0.707c-0.271,0.249-0.707,0.707-0.707,0.707
		c-0.697,0.858-1.705,0.405-2.283-0.33l-1.799-2.039c-0.691-0.885-1.753-1.109-3.075,0.212c-1.797,1.798-0.551,13.36-0.551,13.36
		c-0.056,1.019,0.73,1.805,1.747,1.747c0,0,11.741,1.069,13.361-0.551c1.211-1.211,1.096-2.384,0.214-3.073l-2.041-1.801
		c-0.733-0.575-1.481-1.879-0.623-2.575l0.707-0.707c3.514-3.515,9.964-4.179,14.142,0c3.899,3.898,3.899,10.243,0,14.142
		c-0.204,0.204-0.417,0.392-0.634,0.573l5.656,5.656c0.211-0.191,0.432-0.369,0.635-0.572C61.928,36.686,61.928,25.266,54.91,18.247
		z"/>
</g>
<g id="Layer_2">
</g>
</svg>
