<?xml version="1.0" encoding="utf-8"?>
<!-- Generator: Adobe Illustrator 16.0.0, SVG Export Plug-In . SVG Version: 6.00 Build 0)  -->
<!DOCTYPE svg PUBLIC "-//W3C//DTD SVG 1.1//EN" "http://www.w3.org/Graphics/SVG/1.1/DTD/svg11.dtd">
<svg version="1.1" xmlns="http://www.w3.org/2000/svg" xmlns:xlink="http://www.w3.org/1999/xlink" x="0px" y="0px" width="76px"
	 height="66px" viewBox="0 0 76 66" enable-background="new 0 0 76 66" xml:space="preserve">
<g id="Layer_1">
</g>
<g id="Layer_2">
	<g>
		<g opacity="0.25">
			<g>
				<path fill="#FF61F8" d="M30.5,56.65c-1.016,0-1.702-0.566-2.25-1.39c-0.548,0.823-1.859,1.39-2.875,1.39
					c-1.598,0-3.375-1.402-3.375-3V36.79c0,0.289,0.111,1.21-0.417,1.21h-0.166C20.084,38,18,36.166,18,34.833V22.65
					c0-2.877,3.71-4.65,6.8-4.65H32.4c3.35,0,4.6,2.042,4.6,4.65v12.183C37,36.166,36.916,38,35.583,38h-0.166
					C34.889,38,34,37.079,33,36.79v16.86C33,55.248,32.098,56.65,30.5,56.65z"/>
				<path fill="#FFFFFF" d="M32.4,19H24.8c-2.64,0-5.8,1.45-5.8,3.65c0,0.48,0,1.039,0,1.617v4.383v6.183
					C19,35.612,20.638,37,21.417,37h0.166C22.362,37,22,35.612,22,34.833V29.45v-0.8v-4.383V24.05c0-0.329,0.17-0.6,0.5-0.6
					s0.5,0.271,0.5,0.6v1.4v1.2v2v0.8v9v15.2c0,1.1,1.01,2,2,2s2-0.9,2-2v-11.4v-3.8V36.85c0-0.33,1.07,0.15,1.4,0.15H28.6
					c0.33,0-0.6-0.48-0.6-0.15v1.601v3.8v11.4c0,1.1,1.01,2,2,2s2-0.9,2-2v-15.2v-9.8v-2V24.05c0-0.329,0.17-0.6,0.5-0.6
					s0.5,0.271,0.5,0.6v0.218v4.383v0.8v5.383C33,35.612,34.638,37,35.417,37h0.166C36.362,37,36,35.612,36,34.833V28.65v-4.383
					c0-0.578,0-1.137,0-1.617C36,20.45,35.04,19,32.4,19z"/>
			</g>
			<path fill="#FF61F8" d="M28.7,18.75c-2.592,0-4.7-2.108-4.7-4.7c0-2.591,2.108-4.7,4.7-4.7s4.7,2.109,4.7,4.7
				C33.4,16.642,31.292,18.75,28.7,18.75z"/>
			<circle fill="#FFFFFF" cx="28.7" cy="14.05" r="3.7"/>
		</g>
		<g opacity="0.5">
			<g>
				<path fill="#FF61F8" d="M43.063,50.738c-0.762,0-1.308-0.426-1.719-1.043c-0.411,0.617-1.723,1.043-2.484,1.043
					c-1.198,0-2.859-1.053-2.859-2.25V35.843C36,36.06,36.708,37,36.313,37h-0.125c-1,0-3.188-1.625-3.188-2.625v-9.137
					C33,23.08,36.407,22,38.725,22h5.701C46.938,22,48,23.281,48,25.238v9.137c0,1-0.188,2.625-1.188,2.625h-0.125
					C46.292,37,45,36.06,45,35.843v12.646C45,49.686,44.261,50.738,43.063,50.738z"/>
				<path fill="#FFFFFF" d="M44.425,23h-5.701C36.745,23,34,23.588,34,25.238c0,0.359,0,0.779,0,1.213v3.287v4.637
					C34,34.959,35.604,36,36.188,36h0.125C36.896,36,36,34.959,36,34.375v-4.037v-0.6v-3.287v-0.164c0-0.246,0.252-0.449,0.5-0.449
					s0.5,0.203,0.5,0.449v1.051v0.9v1.5v0.6v6.75v11.4c0,0.824,0.757,1.5,1.5,1.5s1.5-0.676,1.5-1.5v-8.551v-2.85v-1.201
					C40,35.64,41.178,36,41.425,36h0.149C41.822,36,41,35.64,41,35.887v1.201v2.85v8.551c0,0.824,0.757,1.5,1.5,1.5
					s1.5-0.676,1.5-1.5v-11.4v-7.35v-1.5v-1.951c0-0.246,0.252-0.449,0.5-0.449s0.5,0.203,0.5,0.449v0.164v3.287v0.6v4.037
					C45,34.959,46.104,36,46.688,36h0.125C47.396,36,47,34.959,47,34.375v-4.637v-3.287c0-0.434,0-0.854,0-1.213
					C47,23.588,46.405,23,44.425,23z"/>
			</g>
			<path fill="#FF61F8" d="M41.65,22.313c-1.944,0-3.525-1.581-3.525-3.525c0-1.943,1.581-3.525,3.525-3.525
				c1.943,0,3.525,1.582,3.525,3.525C45.175,20.731,43.594,22.313,41.65,22.313z"/>
			<circle fill="#FFFFFF" cx="41.65" cy="18.787" r="2.775"/>
		</g>
		<g>
			<g>
				<path fill="#AB55A1" d="M52.5,45.543c-0.622,0-0.895-0.272-1.25-0.735c-0.355,0.463-1.253,0.735-1.875,0.735
					c-1.178,0-2.375-0.976-2.375-2.372v-7.188c0,0.171-0.652,0.268-1.031,0.268c-1.123,0-1.969-0.856-1.969-1.992v-4.36
					C44,27.784,46.666,27,48.961,27h5.216C56.428,27,57,27.75,57,29.897v4.36c0,1.08-0.916,1.992-2,1.992c-0.361,0,0-0.102-1-0.276
					v7.197C54,44.567,53.678,45.543,52.5,45.543z"/>
				<path fill="#FFFFFF" d="M54.177,28h-5.216C47.149,28,45,28.388,45,29.897c0,0.33,0,0.714,0,1.11v1.007v2.243
					c0,0.535,0.344,0.992,0.969,0.992S47,34.793,47,34.258v-1.693v-0.55v-1.007v-0.149c0-0.227,0.273-0.412,0.5-0.412
					s0.5,0.186,0.5,0.412v0.96v0.824v-0.628v0.55v6.176v4.431c0,0.755,0.321,1.372,1,1.372c0.68,0,1-0.617,1-1.372v-1.823V38.74
					v-1.099C50,37.415,51.205,38,51.432,38h0.137C51.795,38,51,37.415,51,37.642v1.099v2.607v1.823c0,0.755,0.32,1.372,1,1.372
					c0.679,0,1-0.617,1-1.372V38.74v-6.726v0.628v-1.784c0-0.227,0.273-0.412,0.5-0.412s0.5,0.186,0.5,0.412v0.149v1.007v0.55v1.693
					c0,0.535,0.465,0.992,1,0.992s1-0.457,1-0.992v-2.243v-1.007c0-0.396,0-0.78,0-1.11C56,28.388,55.988,28,54.177,28z"/>
			</g>
			<path fill="#AB55A1" d="M51.638,27.535c-1.952,0-3.54-1.588-3.54-3.539c0-1.952,1.588-3.539,3.54-3.539s3.539,1.587,3.539,3.539
				C55.177,25.947,53.59,27.535,51.638,27.535z"/>
			<circle fill="#FFFFFF" cx="51.638" cy="23.996" r="2.539"/>
		</g>
	</g>
</g>
</svg>
