<?xml version="1.0" encoding="utf-8"?>
<!-- Generator: Adobe Illustrator 15.0.0, SVG Export Plug-In . SVG Version: 6.00 Build 0)  -->
<!DOCTYPE svg PUBLIC "-//W3C//DTD SVG 1.1//EN" "http://www.w3.org/Graphics/SVG/1.1/DTD/svg11.dtd">
<svg version="1.1" id="Layer_1" xmlns="http://www.w3.org/2000/svg" xmlns:xlink="http://www.w3.org/1999/xlink" x="0px" y="0px"
	 width="76px" height="66px" viewBox="0 0 76 66" enable-background="new 0 0 76 66" xml:space="preserve">
<g>
	<path fill="#308BA0" d="M54,29c0-2.209,1.791-4,4-4h1c2.209,0,4,1.791,4,4v8c0,2.209-1.791,4-4,4h-1c-2.209,0-4-1.791-4-4V29z"/>
	<path fill="#FFFFFF" d="M55,29c0-1.657,1.343-3,3-3h1c1.657,0,3,1.343,3,3v8c0,1.657-1.343,3-3,3h-1c-1.657,0-3-1.343-3-3V29z"/>
</g>
<g>
	<path fill="#308BA0" d="M44,29c0-2.209,1.791-4,4-4h1c2.209,0,4,1.791,4,4v8c0,2.209-1.791,4-4,4h-1c-2.209,0-4-1.791-4-4V29z"/>
	<path fill="#FFFFFF" d="M45,29c0-1.657,1.343-3,3-3h1c1.657,0,3,1.343,3,3v8c0,1.657-1.343,3-3,3h-1c-1.657,0-3-1.343-3-3V29z"/>
</g>
<g id="bk">
	<g>
		<path fill="#308BA0" d="M42.859,36.973c0,0.877-0.26,1.689-0.926,2.284c-0.779,0.7-1.783,1.034-2.942,0.917l-2.612-0.479
			c-0.539-0.059-1.017,0.061-1.309,0.322c-0.182,0.166-0.275,0.376-0.275,0.626c0,0.042,0.002,0.085,0.014,0.188l0.246,3.979
			c0.022,0.189,0.035,0.378,0.035,0.562l0,0c0,1.074-0.398,1.97-1.154,2.597c-0.776,0.646-1.896,0.971-3.33,0.971
			c-4.018,0-13.385-11.339-15.354-13.778c-0.72-0.672-1.115-1.565-1.115-2.522c0-0.959,0.396-1.853,1.121-2.528
			c2.756-3.303,11.775-13.774,15.348-13.774c3.306,0,4.479,1.957,4.479,3.631c0,0.164-0.01,0.33-0.025,0.439
			c0,0-0.27,4.184-0.27,4.227c0,0.25,0.086,0.461,0.27,0.626c0.291,0.262,0.755,0.381,1.295,0.325l2.586-0.48
			c1.159-0.121,2.217,0.213,2.996,0.916c0.664,0.6,0.924,1.412,0.924,2.288V36.973z"/>
	</g>
	<g>
		<path fill="#FFFFFF" d="M30.606,47.945c2.783,0,3.66-1.354,3.457-3.009l-0.252-4.037c-0.166-1.379,1.034-2.366,2.672-2.196
			l2.612,0.479c1.638,0.17,2.764-0.655,2.764-2.042v-9c0-1.387-1.126-2.211-2.764-2.041l-2.612,0.48
			c-1.638,0.17-2.838-0.818-2.672-2.197l0.252-4.037c0.203-1.654-0.908-3.008-3.457-3.008c-3.402,0-14.623,13.467-14.623,13.467
			c-1.129,1.01-1.129,2.663,0,3.674C15.983,34.479,26.829,47.945,30.606,47.945z"/>
	</g>
</g>
</svg>
