<?xml version="1.0" encoding="utf-8"?>
<!-- Generator: Adobe Illustrator 16.0.0, SVG Export Plug-In . SVG Version: 6.00 Build 0)  -->
<!DOCTYPE svg PUBLIC "-//W3C//DTD SVG 1.1//EN" "http://www.w3.org/Graphics/SVG/1.1/DTD/svg11.dtd">
<svg version="1.1" xmlns="http://www.w3.org/2000/svg" xmlns:xlink="http://www.w3.org/1999/xlink" x="0px" y="0px" width="76px"
	 height="66px" viewBox="0 0 76 66" enable-background="new 0 0 76 66" xml:space="preserve">
<g id="Layer_1">
</g>
<g id="Layer_2">
	<g>
		<path fill="#AB55A1" d="M41.9,18h-0.277c-0.386,0-0.845,0-1.355,1H41.9c2.64,0,4.1,1.388,4.1,3.588c0,0.48,0,1.039,0,1.617v4.383
			v6.183C46,35.55,45.862,37,45.083,37h-0.166C44.138,37,43,35.55,43,34.771v-5.383v-0.8v-4.383v-0.218c0-0.329-0.17-0.6-0.5-0.6
			s-0.5,0.271-0.5,0.6v2.601v2v9.8v15.2c0,1.1-1.01,2-2,2s-2-0.9-2-2v-11.4v-3.8v-1.601C38,36.457,38.43,37,38.1,37H37.9
			c-0.33,0-0.9-0.543-0.9-0.213v1.601v3.8v11.4c0,1.1-1.01,2-2,2s-2-0.9-2-2v-15.2v-9v-0.8v-2v-1.2v-1.4c0-0.329-0.17-0.6-0.5-0.6
			s-0.5,0.271-0.5,0.6v0.218v4.383v0.8v5.383C32,35.55,31.862,37,31.083,37h-0.166C30.138,37,29,35.55,29,34.771v-6.183v-4.383
			c0-0.578,0-1.137,0-1.617c0-2.2,2.66-3.588,5.3-3.588h1.833c-0.511-1-0.97-1-1.355-1H34.3c-3.09,0-6.3,1.711-6.3,4.588v12.183
			C28,36.104,29.584,38,30.917,38h0.166C31.611,38,32,37.017,32,36.728v16.86c0,1.598,1.652,3,3.25,3
			c1.016,0,2.077-0.566,2.625-1.39c0.548,0.823,1.297,1.39,2.313,1.39c1.598,0,2.813-1.402,2.813-3v-16.86
			C44,37.017,44.389,38,44.917,38h0.166C46.416,38,47,36.104,47,34.771V22.588C47,19.979,45.25,18,41.9,18z"/>
		<path fill="#AB55A1" d="M34.5,14.394c0-2.044,1.656-3.903,3.7-3.903c2.043,0,3.7,1.961,3.7,4.005c0,1.376-0.76,2.505-1.875,3.505
			h1.598c0.786-1,1.277-2.367,1.277-3.606c0-2.591-2.108-4.903-4.7-4.903s-4.7,2.414-4.7,5.005c0,1.239,0.491,2.505,1.277,3.505
			h1.597C35.26,17,34.5,15.77,34.5,14.394z"/>
		<path fill="#AB55A1" d="M36.133,19h4.135c0.511-1,0.97-1,1.355-1h-1.598c-0.54,0-1.158,0.5-1.825,0.5
			c-0.668,0-1.285-0.5-1.826-0.5h-1.597C35.163,18,35.622,18,36.133,19z"/>
		<path fill="#AB55A1" d="M38.2,19.5c0.745,0,1.44-0.5,2.067-0.5h-4.135C36.76,19,37.455,19.5,38.2,19.5z"/>
	</g>
</g>
</svg>
