<?xml version="1.0" encoding="utf-8"?>
<!-- Generator: Adobe Illustrator 16.0.0, SVG Export Plug-In . SVG Version: 6.00 Build 0)  -->
<!DOCTYPE svg PUBLIC "-//W3C//DTD SVG 1.1//EN" "http://www.w3.org/Graphics/SVG/1.1/DTD/svg11.dtd">
<svg version="1.1" xmlns="http://www.w3.org/2000/svg" xmlns:xlink="http://www.w3.org/1999/xlink" x="0px" y="0px" width="76px"
	 height="66px" viewBox="0 0 76 66" enable-background="new 0 0 76 66" xml:space="preserve">
<g id="Layer_1">
</g>
<g id="Layer_2">
	<g>
		<path fill="#FFFFFF" d="M41.9,18H34.3c-2.64,0-5.3,2.45-5.3,4.65c0,0.48,0,1.039,0,1.617v4.383v6.183
			C29,35.612,30.138,36,30.917,36h0.166C31.862,36,32,35.612,32,34.833V29.45v-0.8v-4.383V24.05c0-0.329,0.17-0.6,0.5-0.6
			s0.5,0.271,0.5,0.6v1.4v1.2v2v0.8v9v15.2c0,1.1,1.01,2,2,2s2-0.9,2-2v-11.4v-3.8V36.85c0-0.33,0.57-0.85,0.9-0.85H38.1
			c0.33,0-0.1,0.52-0.1,0.85v1.601v3.8v11.4c0,1.1,1.01,2,2,2s2-0.9,2-2v-15.2v-9.8v-2V24.05c0-0.329,0.17-0.6,0.5-0.6
			s0.5,0.271,0.5,0.6v0.218v4.383v0.8v5.383C43,35.612,44.138,36,44.917,36h0.166C45.862,36,46,35.612,46,34.833V28.65v-4.383
			c0-0.578,0-1.137,0-1.617C46,20.45,44.54,18,41.9,18z"/>
		<circle fill="#FFFFFF" cx="38.2" cy="14.05" r="3.7"/>
		<g>
			<path fill="#AB55A1" d="M41.9,17h-0.277c-0.386,1-0.845,1-1.355,1H41.9c2.64,0,4.1,2.45,4.1,4.65c0,0.48,0,1.039,0,1.617v4.383
				v6.183C46,35.612,45.862,36,45.083,36h-0.166C44.138,36,43,35.612,43,34.833V29.45v-0.8v-4.383V24.05c0-0.329-0.17-0.6-0.5-0.6
				s-0.5,0.271-0.5,0.6v2.601v2v9.8v15.2c0,1.1-1.01,2-2,2s-2-0.9-2-2v-11.4v-3.8V36.85c0-0.33,0.43-0.85,0.1-0.85H37.9
				c-0.33,0-0.9,0.52-0.9,0.85v1.601v3.8v11.4c0,1.1-1.01,2-2,2s-2-0.9-2-2v-15.2v-9v-0.8v-2v-1.2v-1.4c0-0.329-0.17-0.6-0.5-0.6
				s-0.5,0.271-0.5,0.6v0.218v4.383v0.8v5.383C32,35.612,31.862,36,31.083,36h-0.166C30.138,36,29,35.612,29,34.833V28.65v-4.383
				c0-0.578,0-1.137,0-1.617c0-2.2,2.66-4.65,5.3-4.65h1.833c-0.511,0-0.97,0-1.355-1H34.3c-3.09,0-6.3,2.773-6.3,5.65v12.183
				C28,36.166,29.584,37,30.917,37h0.166C31.611,37,32,37.079,32,36.79v16.86c0,1.598,1.652,3,3.25,3
				c1.016,0,2.077-0.566,2.625-1.39c0.548,0.823,1.297,1.39,2.313,1.39c1.598,0,2.813-1.402,2.813-3V36.79
				c1,0.289,1.389,0.21,1.917,0.21h0.166C46.416,37,47,36.166,47,34.833V22.65C47,20.042,45.25,17,41.9,17z"/>
			<path fill="#AB55A1" d="M34.5,13.925c0-2.044,1.656-3.638,3.7-3.638c2.043,0,3.7,1.563,3.7,3.606c0,1.376-0.76,3.106-1.875,3.106
				h1.598c0.786-1,1.277-1.836,1.277-3.075c0-2.591-2.108-4.638-4.7-4.638s-4.7,2.016-4.7,4.606c0,1.239,0.491,2.106,1.277,3.106
				h1.597C35.26,17,34.5,15.301,34.5,13.925z"/>
			<path fill="#AB55A1" d="M36.133,18h4.135c0.511,0,0.97,0,1.355-1h-1.598c-0.54,1-1.158,0.5-1.825,0.5
				c-0.668,0-1.285,0.5-1.826-0.5h-1.597C35.163,18,35.622,18,36.133,18z"/>
			<path fill="#AB55A1" d="M38.2,18.5c0.745,0,1.44,0.5,2.067-0.5h-4.135C36.76,19,37.455,18.5,38.2,18.5z"/>
		</g>
	</g>
</g>
</svg>
