<?xml version="1.0" encoding="utf-8"?>
<!-- Generator: Adobe Illustrator 15.0.0, SVG Export Plug-In . SVG Version: 6.00 Build 0)  -->
<!DOCTYPE svg PUBLIC "-//W3C//DTD SVG 1.1//EN" "http://www.w3.org/Graphics/SVG/1.1/DTD/svg11.dtd">
<svg version="1.1" id="Layer_1" xmlns="http://www.w3.org/2000/svg" xmlns:xlink="http://www.w3.org/1999/xlink" x="0px" y="0px"
	 width="76px" height="66px" viewBox="0 0 76 66" enable-background="new 0 0 76 66" xml:space="preserve">
<path fill="#AB55A1" d="M47.282,51.334c-3.584-1.793-5.412-4.966-6.064-6.334H38c-12.287,0-21.911-7.136-21.911-16.246
	c0-9.111,9.625-16.249,21.911-16.249c12.082,0,21.911,7.397,21.911,16.49c0,5.271-3.281,10.079-9.011,13.215
	c-1.004,1.229-2.957,4.202-2.19,8.033l0.401,2.006L47.282,51.334z"/>
<path fill="#FFFFFF" d="M58.911,28.995c0-8.555-9.362-15.49-20.911-15.49s-20.911,6.694-20.911,15.249S26.451,44,38,44
	c1.796,0,3.872,0,3.872,0l0,0c0,0,1.599,4.309,5.856,6.439c-0.943-4.725,1.875-8.25,2.525-9.02
	C55.498,38.607,58.911,34.157,58.911,28.995z"/>
</svg>
