<?xml version="1.0" encoding="utf-8"?>
<!-- Generator: Adobe Illustrator 15.0.0, SVG Export Plug-In . SVG Version: 6.00 Build 0)  -->
<!DOCTYPE svg PUBLIC "-//W3C//DTD SVG 1.1//EN" "http://www.w3.org/Graphics/SVG/1.1/DTD/svg11.dtd">
<svg version="1.1" id="Layer_1" xmlns="http://www.w3.org/2000/svg" xmlns:xlink="http://www.w3.org/1999/xlink" x="0px" y="0px"
	 width="76px" height="66px" viewBox="0 0 76 66" enable-background="new 0 0 76 66" xml:space="preserve">
<g>
	<path fill="#308BA0" d="M43.802,10c0,2.209-1.791,4-4,4h-8c-2.209,0-4-1.791-4-4V9c0-2.209,1.791-4,4-4h8c2.209,0,4,1.791,4,4V10z"
		/>
	<path fill="#FFFFFF" d="M42.802,10c0,1.657-1.343,3-3,3h-8c-1.657,0-3-1.343-3-3V9c0-1.657,1.343-3,3-3h8c1.657,0,3,1.343,3,3V10z"
		/>
</g>
<g>
	<path fill="#308BA0" d="M43.802,20c0,2.209-1.791,4-4,4h-8c-2.209,0-4-1.791-4-4v-1c0-2.209,1.791-4,4-4h8c2.209,0,4,1.791,4,4V20z
		"/>
	<path fill="#FFFFFF" d="M42.802,20c0,1.657-1.343,3-3,3h-8c-1.657,0-3-1.343-3-3v-1c0-1.657,1.343-3,3-3h8c1.657,0,3,1.343,3,3V20z
		"/>
</g>
<g id="UP_1_">
	<g>
		<path fill="#308BA0" d="M40.136,25.277c0.877,0,1.689,0.26,2.284,0.926c0.7,0.779,1.034,1.783,0.917,2.942l-0.479,2.612
			c-0.059,0.539,0.061,1.017,0.322,1.309c0.166,0.182,0.376,0.275,0.626,0.275c0.042,0,0.085-0.002,0.188-0.014l3.979-0.246
			c0.189-0.022,0.378-0.035,0.562-0.035l0,0c1.074,0,1.97,0.398,2.597,1.154c0.646,0.776,0.971,1.896,0.971,3.33
			c0,4.018-11.339,13.385-13.778,15.354C37.653,53.604,36.76,54,35.803,54c-0.959,0-1.854-0.396-2.528-1.121
			C29.972,50.123,19.5,41.104,19.5,37.531c0-3.306,1.957-4.479,3.632-4.479c0.164,0,0.33,0.01,0.438,0.025
			c0,0,4.185,0.27,4.228,0.27c0.25,0,0.461-0.086,0.626-0.27c0.262-0.291,0.381-0.755,0.324-1.295l-0.479-2.586
			c-0.121-1.159,0.213-2.217,0.916-2.996c0.6-0.664,1.412-0.924,2.288-0.924H40.136z"/>
	</g>
	<g>
		<path fill="#FFFFFF" d="M51.108,37.53c0-2.783-1.354-3.66-3.009-3.457l-4.037,0.252c-1.379,0.166-2.366-1.034-2.196-2.672
			l0.479-2.612c0.17-1.638-0.655-2.764-2.042-2.764h-9c-1.387,0-2.211,1.126-2.041,2.764l0.479,2.612
			c0.17,1.638-0.817,2.838-2.196,2.672l-4.037-0.252C21.854,33.87,20.5,34.981,20.5,37.53c0,3.402,13.468,14.623,13.468,14.623
			c1.01,1.129,2.663,1.129,3.674,0C37.642,52.153,51.108,41.308,51.108,37.53z"/>
	</g>
</g>
</svg>
