<?xml version="1.0" encoding="utf-8"?>
<!-- Generator: Adobe Illustrator 15.0.0, SVG Export Plug-In . SVG Version: 6.00 Build 0)  -->
<!DOCTYPE svg PUBLIC "-//W3C//DTD SVG 1.1//EN" "http://www.w3.org/Graphics/SVG/1.1/DTD/svg11.dtd">
<svg version="1.1" id="Layer_1" xmlns="http://www.w3.org/2000/svg" xmlns:xlink="http://www.w3.org/1999/xlink" x="0px" y="0px"
	 width="76px" height="66px" viewBox="0 0 76 66" enable-background="new 0 0 76 66" xml:space="preserve">
<path fill="#308BA0" d="M40.036,52.318c-5.883,0-11.408-2.285-15.556-6.436l-0.707-0.707l7.071-7.07l0.707,0.707
	c2.263,2.264,5.276,3.51,8.485,3.51s6.223-1.246,8.485-3.51c4.679-4.68,4.679-12.292,0-16.972c-2.623-2.622-5.573-4.008-8.535-4.008
	c-2.938,0-5.776,1.349-8.438,4.008l-0.041,0.041l-0.045,0.036c-0.168,0.133-0.459,0.448-0.574,0.58l-0.057,0.064l-0.066,0.055
	c-0.106,0.086-0.174,0.154-0.216,0.203c0.029,0.027,2.204,1.94,2.204,1.94c0.59,0.459,0.966,1.146,1.012,1.896
	c0.039,0.625-0.135,1.59-1.18,2.636c-0.554,0.554-1.815,1.189-6.693,1.189c-3.384,0-6.903-0.3-7.409-0.345l-0.069,0.002
	c-0.746,0-1.431-0.29-1.93-0.817c-0.481-0.509-0.734-1.18-0.716-1.898c-0.311-2.908-1.12-12.137,0.846-14.102
	c0.813-0.813,1.646-1.227,2.476-1.227c0.805,0,1.529,0.383,2.094,1.105l1.761,1.994c0.261,0.329,0.519,0.458,0.63,0.458
	c0.039,0,0.09-0.053,0.126-0.097c0.052-0.06,0.518-0.548,0.808-0.814c4.428-4.429,9.78-6.786,15.447-6.786
	c5.688,0,11.238,2.421,15.634,6.816c4.149,4.148,6.435,9.673,6.435,15.557c0,5.883-2.284,11.407-6.435,15.556
	C51.443,50.033,45.918,52.318,40.036,52.318z"/>
<path fill="#FFFFFF" d="M54.885,15.479c-8.188-8.188-20.506-9.192-29.698,0c-0.271,0.249-0.708,0.707-0.708,0.707
	c-0.697,0.858-1.705,0.405-2.283-0.33l-1.799-2.039c-0.691-0.885-1.753-1.11-3.075,0.212c-1.797,1.797-0.551,13.36-0.551,13.36
	c-0.056,1.019,0.73,1.804,1.747,1.747c0,0,11.741,1.068,13.36-0.551c1.211-1.212,1.097-2.384,0.214-3.073l-2.041-1.801
	c-0.733-0.576-0.774-1.172,0.084-1.869c0,0,0.413-0.474,0.708-0.707c6.364-6.363,13.316-5.068,18.386,0
	c5.068,5.069,5.067,13.316,0,18.385c-5.068,5.069-13.315,5.069-18.386,0l-5.657,5.657c8.188,8.188,21.511,8.188,29.698,0
	C63.07,36.989,63.073,23.667,54.885,15.479z"/>
</svg>
