<?xml version="1.0" encoding="utf-8"?>
<!-- Generator: Adobe Illustrator 15.0.0, SVG Export Plug-In . SVG Version: 6.00 Build 0)  -->
<!DOCTYPE svg PUBLIC "-//W3C//DTD SVG 1.1//EN" "http://www.w3.org/Graphics/SVG/1.1/DTD/svg11.dtd">
<svg version="1.1" id="Layer_2" xmlns="http://www.w3.org/2000/svg" xmlns:xlink="http://www.w3.org/1999/xlink" x="0px" y="0px"
	 width="76px" height="66px" viewBox="0 0 76 66" enable-background="new 0 0 76 66" xml:space="preserve">
<path fill="#308BA0" d="M21.772,45.883c-4.15-4.148-6.435-9.673-6.435-15.556c0-5.884,2.285-11.409,6.435-15.557
	c4.396-4.395,9.946-6.816,15.634-6.816c5.667,0,11.02,2.357,15.447,6.786c0.289,0.266,0.756,0.754,0.808,0.814
	c0.036,0.044,0.087,0.097,0.126,0.097c0.111,0,0.369-0.129,0.631-0.458l1.76-1.994c0.565-0.722,1.289-1.105,2.095-1.105
	c0.829,0,1.663,0.414,2.476,1.227c1.967,1.965,1.157,11.194,0.846,14.102c0.019,0.718-0.234,1.389-0.715,1.898
	c-0.5,0.527-1.185,0.817-1.931,0.817l-0.069-0.002c-0.506,0.045-4.024,0.345-7.408,0.345c-4.879,0-6.14-0.635-6.693-1.189
	c-1.045-1.046-1.219-2.011-1.18-2.636c0.045-0.75,0.422-1.438,1.012-1.896c0,0,2.175-1.913,2.204-1.94
	c-0.042-0.049-0.11-0.117-0.216-0.203l-0.066-0.055l-0.057-0.064c-0.115-0.132-0.406-0.447-0.574-0.58l-0.045-0.036l-0.041-0.041
	c-2.661-2.659-5.499-4.008-8.438-4.008c-2.962,0-5.912,1.386-8.535,4.008c-4.679,4.679-4.679,12.292,0,16.972
	c2.263,2.264,5.276,3.51,8.485,3.51s6.222-1.246,8.485-3.51l0.707-0.707l7.07,7.07l-0.707,0.707
	c-4.147,4.15-9.672,6.436-15.556,6.436C31.445,52.318,25.92,50.033,21.772,45.883z"/>
<path fill="#FFFFFF" d="M22.479,45.177c8.187,8.188,21.51,8.188,29.698,0l-5.657-5.657c-5.07,5.069-13.317,5.069-18.386,0
	c-5.067-5.068-5.068-13.315,0-18.385c5.069-5.068,12.021-6.363,18.386,0c0.295,0.233,0.708,0.707,0.708,0.707
	c0.857,0.697,0.816,1.293,0.084,1.869l-2.041,1.801c-0.883,0.689-0.997,1.861,0.214,3.073c1.619,1.619,13.36,0.551,13.36,0.551
	c1.017,0.057,1.803-0.728,1.746-1.747c0,0,1.246-11.563-0.551-13.36c-1.322-1.322-2.384-1.097-3.074-0.212l-1.799,2.039
	c-0.578,0.735-1.587,1.188-2.283,0.33c0,0-0.438-0.458-0.709-0.707c-9.191-9.192-21.51-8.188-29.697,0
	C14.29,23.667,14.293,36.989,22.479,45.177z"/>
</svg>
