<?xml version="1.0" encoding="utf-8"?>
<!-- Generator: Adobe Illustrator 15.0.0, SVG Export Plug-In . SVG Version: 6.00 Build 0)  -->
<!DOCTYPE svg PUBLIC "-//W3C//DTD SVG 1.1//EN" "http://www.w3.org/Graphics/SVG/1.1/DTD/svg11.dtd">
<svg version="1.1" id="Layer_1" xmlns="http://www.w3.org/2000/svg" xmlns:xlink="http://www.w3.org/1999/xlink" x="0px" y="0px"
	 width="76px" height="66px" viewBox="0 0 76 66" enable-background="new 0 0 76 66" xml:space="preserve">
<path fill="#308BA0" d="M46.708,43.941c-0.716,0-1.411-0.306-1.92-0.836c-2.276-1.838-9.374-7.791-9.374-10.57
	c0-2.465,1.409-3.343,2.727-3.343c0.137,0,0.277,0.009,0.42,0.026l2.762,0.173c0.076,0,0.13-0.023,0.179-0.078
	c0.112-0.125,0.163-0.358,0.136-0.624l-0.009-0.076l0.003-0.075c0.002-0.036,0.174-3.621,0.174-6.548
	c0-2.074-2.302-3.684-4.281-3.684c-2.03,0-3.684,1.664-3.684,3.695c0,2.468-1.384,2.998-2.545,2.998h-6.242
	c-2.206,0-2.209-2.188-2.211-3.006c0.004-8.092,6.59-14.68,14.682-14.68c8.097,0,14.683,6.579,14.683,14.669
	c0,3.729-0.414,6.626-0.431,6.747c-0.023,0.227,0.026,0.459,0.141,0.584c0.049,0.055,0.102,0.077,0.177,0.077l2.823-0.179
	c0.066-0.01,0.191-0.018,0.314-0.018c1.379,0,2.77,1.032,2.77,3.34c0,2.475-6.508,8.178-9.367,10.562
	C48.124,43.636,47.427,43.941,46.708,43.941z"/>
<path fill="#FFFFFF" d="M54.979,30.211l-2.717,0.17c-0.926,0.111-1.591-0.695-1.477-1.795c0,0,0.421-2.906,0.421-6.605
	c0-7.551-6.129-13.672-13.683-13.672c-7.553,0-13.677,6.133-13.682,13.684C23.845,23.094,23.951,24,25.054,24h6.242
	c1.545,0,1.545-1.285,1.545-1.998c0-2.588,2.097-4.689,4.685-4.689c2.586,0,5.279,2.093,5.279,4.681
	c0,2.986-0.174,6.595-0.174,6.595c0.114,1.1-0.55,1.905-1.479,1.794l-2.715-0.171c-1.113-0.137-2.023,0.455-2.023,2.324
	c0,2.542,9.059,9.837,9.059,9.837c0.68,0.76,1.791,0.76,2.471,0c0,0,9.059-7.547,9.059-9.837C57,30.822,56.09,30.074,54.979,30.211z
	"/>
<path fill="#308BA0" d="M25.888,42C24.208,42,23,41.087,23,39.376v-2.75C23,34.915,24.208,34,25.888,34h4.91
	C32.476,34,34,34.915,34,36.626v2.75C34,41.087,32.476,42,30.798,42H25.888z"/>
<path fill="#FFFFFF" d="M30.798,35h-4.91C24.757,35,24,35.466,24,36.626v2.75C24,40.538,24.757,41,25.888,41h4.91
	C31.927,41,33,40.538,33,39.376v-2.75C33,35.466,31.927,35,30.798,35z"/>
<path fill="#308BA0" d="M25.888,51C24.208,51,23,50.087,23,48.376v-2.75C23,43.915,24.208,43,25.888,43h4.91
	C32.476,43,34,43.915,34,45.626v2.75C34,50.087,32.476,51,30.798,51H25.888z"/>
<path fill="#FFFFFF" d="M30.798,44h-4.91C24.757,44,24,44.466,24,45.626v2.75C24,49.538,24.757,50,25.888,50h4.91
	C31.927,50,33,49.538,33,48.376v-2.75C33,44.466,31.927,44,30.798,44z"/>
<path fill="#308BA0" d="M25.888,33C24.208,33,23,32.087,23,30.376v-1.75C23,26.915,24.208,26,25.888,26h4.91
	C32.476,26,34,26.915,34,28.626v1.75C34,32.087,32.476,33,30.798,33H25.888z"/>
<path fill="#FFFFFF" d="M30.798,27h-4.91C24.757,27,24,27.466,24,28.626v1.75C24,31.538,24.757,32,25.888,32h4.91
	C31.927,32,33,31.538,33,30.376v-1.75C33,27.466,31.927,27,30.798,27z"/>
</svg>
