<?xml version="1.0" encoding="utf-8"?>
<!-- Generator: Adobe Illustrator 16.0.0, SVG Export Plug-In . SVG Version: 6.00 Build 0)  -->
<!DOCTYPE svg PUBLIC "-//W3C//DTD SVG 1.1//EN" "http://www.w3.org/Graphics/SVG/1.1/DTD/svg11.dtd">
<svg version="1.1" id="Layer_1" xmlns="http://www.w3.org/2000/svg" xmlns:xlink="http://www.w3.org/1999/xlink" x="0px" y="0px"
	 width="76px" height="66px" viewBox="0 0 76 66" enable-background="new 0 0 76 66" xml:space="preserve">
<g id="UP_1_">
	<g>
		<path fill="#308BA0" d="M32.169,34c-0.876,0-1.688-0.26-2.288-0.924c-0.703-0.779-1.037-1.837-0.916-2.996l0.48-2.586
			c0.056-0.54-0.063-1.004-0.325-1.295c-0.165-0.183-0.376-0.27-0.626-0.27c-0.043,0-4.227,0.27-4.227,0.27
			c-0.109,0.016-0.275,0.026-0.439,0.026c-1.674,0-3.631-1.173-3.631-4.479c0-3.572,10.471-12.592,13.774-15.348
			c0.675-0.725,1.569-1.121,2.528-1.121c0.957,0,1.85,0.396,2.522,1.115c2.44,1.97,13.779,11.337,13.779,15.354
			c0,1.434-0.326,2.554-0.971,3.33c-0.627,0.756-1.523,1.155-2.596,1.155l0,0c-0.185,0-0.373-0.013-0.563-0.036l-3.979-0.246
			c-0.103-0.011-0.146-0.014-0.188-0.014c-0.25,0-0.46,0.094-0.626,0.276c-0.262,0.292-0.381,0.769-0.323,1.308l0.479,2.613
			c0.118,1.159-0.216,2.163-0.917,2.942C42.521,33.74,41.709,34,40.832,34H32.169z"/>
	</g>
	<g>
		<path fill="#FFFFFF" d="M38.338,7.124c-1.011-1.129-2.664-1.129-3.674,0c0,0-13.467,11.221-13.467,14.623
			c0,2.549,1.354,3.66,3.008,3.457l4.037-0.252c1.379-0.166,2.367,1.035,2.197,2.672l-0.48,2.613C29.789,31.874,30.614,33,32,33h9
			c1.387,0,2.212-1.126,2.042-2.763l-0.479-2.613c-0.17-1.637,0.817-2.838,2.196-2.672l4.037,0.252
			c1.654,0.203,3.009-0.674,3.009-3.457C51.805,17.97,38.338,7.124,38.338,7.124z"/>
	</g>
</g>
<g>
	<path fill="#308BA0" d="M44,50c0,2.209-1.791,4-4,4h-8c-2.209,0-4-1.791-4-4v-1c0-2.209,1.791-4,4-4h8c2.209,0,4,1.791,4,4V50z"/>
	<path fill="#FFFFFF" d="M43,50c0,1.656-1.343,3-3,3h-8c-1.657,0-3-1.344-3-3v-1c0-1.656,1.343-3,3-3h8c1.657,0,3,1.344,3,3V50z"/>
</g>
<g>
	<path fill="#308BA0" d="M44,40c0,2.209-1.791,4-4,4h-8c-2.209,0-4-1.791-4-4v-1c0-2.209,1.791-4,4-4h8c2.209,0,4,1.791,4,4V40z"/>
	<path fill="#FFFFFF" d="M43,40c0,1.656-1.343,3-3,3h-8c-1.657,0-3-1.344-3-3v-1c0-1.656,1.343-3,3-3h8c1.657,0,3,1.344,3,3V40z"/>
</g>
</svg>
