<?xml version="1.0" encoding="utf-8"?>
<!-- Generator: Adobe Illustrator 15.0.0, SVG Export Plug-In . SVG Version: 6.00 Build 0)  -->
<!DOCTYPE svg PUBLIC "-//W3C//DTD SVG 1.1//EN" "http://www.w3.org/Graphics/SVG/1.1/DTD/svg11.dtd">
<svg version="1.1" id="Layer_1" xmlns="http://www.w3.org/2000/svg" xmlns:xlink="http://www.w3.org/1999/xlink" x="0px" y="0px"
	 width="76px" height="66px" viewBox="0 0 76 66" enable-background="new 0 0 76 66" xml:space="preserve">
<path fill="#64A01F" d="M36.956,32.325c-5.219,0-9.345-3.287-10.766-8.579l-0.234-3.639l1.91,2.675
	c2.356,2.376,5.5,3.632,9.09,3.632s6.733-1.256,9.09-3.632l1.91-2.675l-0.233,3.639C46.301,29.038,42.175,32.325,36.956,32.325z
	 M36.956,27.414c-4.055,0-7.373-1.48-9.8-3.928c1.226,4.563,4.698,7.839,9.8,7.839c5.103,0,8.573-3.276,9.8-7.839
	C44.329,25.934,41.012,27.414,36.956,27.414z M36.956,27.043c-4.135,0-7.769-1.461-10.51-4.225l-0.187-0.188l-0.069-0.256
	c-0.349-1.295-0.525-2.669-0.525-4.086C25.665,11.558,29.569,8,36.956,8c7.387,0,11.291,3.558,11.291,10.289
	c0,1.417-0.177,2.791-0.524,4.086l-0.07,0.256l-0.187,0.188C44.725,25.582,41.091,27.043,36.956,27.043z M36.956,26.043
	c4.056,0,7.373-1.481,9.8-3.929c0.323-1.198,0.491-2.484,0.491-3.825C47.247,11.848,43.396,9,36.956,9
	c-6.441,0-10.291,2.848-10.291,9.289c0,1.341,0.168,2.627,0.491,3.825C29.583,24.562,32.901,26.043,36.956,26.043z"/>
<path fill="#FFFFFF" d="M36.956,27.414c-4.055,0-7.373-1.48-9.8-3.928c1.226,4.563,4.698,7.839,9.8,7.839
	c5.103,0,8.573-3.276,9.8-7.839C44.329,25.934,41.012,27.414,36.956,27.414z"/>
<path fill="#FFFFFF" d="M36.956,26.043c4.056,0,7.373-1.481,9.8-3.929c0.323-1.198,0.491-2.484,0.491-3.825
	C47.247,11.848,43.396,9,36.956,9c-6.441,0-10.291,2.848-10.291,9.289c0,1.341,0.168,2.627,0.491,3.825
	C29.583,24.562,32.901,26.043,36.956,26.043z"/>
<path fill="#64A01F" d="M33.713,48l-3.077-17.748l1.697,0.731c1.426,0.613,2.98,0.925,4.623,0.925c1.644,0,3.196-0.312,4.623-0.925
	l1.696-0.731L40.199,48H33.713z"/>
<path fill="#FFFFFF" d="M31.937,31.901L34.555,47h4.802l2.619-15.099c-1.521,0.655-3.211,1.007-5.021,1.007
	C35.147,32.908,33.458,32.557,31.937,31.901z"/>
<rect x="34" y="47" fill="#64A01F" width="6" height="7"/>
<rect x="35" y="48" fill="#FFFFFF" width="4" height="5"/>
<path fill="#64A01F" d="M32.956,61c-3.007,0-10-1.169-10-12c0-0.88,0.012-1.797,0.023-2.729c0.066-5.06,0.149-11.353-1.975-13.503
	C20.487,32.244,19.837,32,18.956,32H18v-4h0.956c1.966,0,3.613,0.658,4.896,1.958C27.15,33.3,27.06,40.217,26.98,46.32
	c-0.012,0.918-0.023,1.814-0.023,2.68c0,7.091,3.207,8,6,8c0.949,0,1.639-0.186,1.895-0.507c0.137-0.228,0.219-1.254,0.109-2.401
	l-0.043-0.441l0.297-0.33L35.512,53h1.331h0.003h1.893l0.188,0.758c0.007,0.03,0.608,3.236-0.92,5.193
	C36.945,60.311,35.246,61,32.956,61z"/>
<path fill="#FFFFFF" d="M32.956,60c-3.361,0-9-1.43-9-11c0-0.876,0.012-1.788,0.023-2.717c0.072-5.518,0.176-11.77-2.242-14.218
	C21.031,31.349,20,31,19,31v-2c2,0,3.074,0.559,4.162,1.66c3.006,3.045,2.907,9.74,2.829,15.648
	c-0.012,0.92-0.029,1.822-0.029,2.689c0,6.057,2.287,9,6.998,9c1.311,0,2.21-0.298,2.676-0.885c0.603-0.762,0.293-3.352,0.321-3.115
	h2c0.021,0.082,0.463,2.799-0.738,4.336C36.356,59.439,34.922,60,32.956,60z"/>
<path fill="#64A01F" d="M36.456,10c0.276,0,0.5,0.224,0.5,0.5s-0.224,0.5-0.5,0.5c-0.276,0-0.5-0.224-0.5-0.5S36.18,10,36.456,10z
	 M36.456,12c0.276,0,0.5,0.224,0.5,0.5s-0.224,0.5-0.5,0.5c-0.276,0-0.5-0.224-0.5-0.5S36.18,12,36.456,12z M36.456,14
	c0.276,0,0.5,0.224,0.5,0.5s-0.224,0.5-0.5,0.5c-0.276,0-0.5-0.224-0.5-0.5S36.18,14,36.456,14z M36.456,16
	c0.276,0,0.5,0.224,0.5,0.5s-0.224,0.5-0.5,0.5c-0.276,0-0.5-0.224-0.5-0.5S36.18,16,36.456,16z M36.456,18
	c0.276,0,0.5,0.224,0.5,0.5s-0.224,0.5-0.5,0.5c-0.276,0-0.5-0.224-0.5-0.5S36.18,18,36.456,18z M36.456,20
	c0.276,0,0.5,0.224,0.5,0.5s-0.224,0.5-0.5,0.5c-0.276,0-0.5-0.224-0.5-0.5S36.18,20,36.456,20z M36.456,22
	c0.276,0,0.5,0.224,0.5,0.5s-0.224,0.5-0.5,0.5c-0.276,0-0.5-0.224-0.5-0.5S36.18,22,36.456,22z M36.456,24
	c0.276,0,0.5,0.224,0.5,0.5s-0.224,0.5-0.5,0.5c-0.276,0-0.5-0.224-0.5-0.5S36.18,24,36.456,24z M34.456,10
	c0.276,0,0.5,0.224,0.5,0.5s-0.224,0.5-0.5,0.5s-0.5-0.224-0.5-0.5S34.18,10,34.456,10z M34.456,12c0.276,0,0.5,0.224,0.5,0.5
	s-0.224,0.5-0.5,0.5s-0.5-0.224-0.5-0.5S34.18,12,34.456,12z M34.456,14c0.276,0,0.5,0.224,0.5,0.5s-0.224,0.5-0.5,0.5
	s-0.5-0.224-0.5-0.5S34.18,14,34.456,14z M34.456,16c0.276,0,0.5,0.224,0.5,0.5s-0.224,0.5-0.5,0.5s-0.5-0.224-0.5-0.5
	S34.18,16,34.456,16z M34.456,18c0.276,0,0.5,0.224,0.5,0.5s-0.224,0.5-0.5,0.5s-0.5-0.224-0.5-0.5S34.18,18,34.456,18z M34.456,20
	c0.276,0,0.5,0.224,0.5,0.5s-0.224,0.5-0.5,0.5s-0.5-0.224-0.5-0.5S34.18,20,34.456,20z M34.456,22c0.276,0,0.5,0.224,0.5,0.5
	s-0.224,0.5-0.5,0.5s-0.5-0.224-0.5-0.5S34.18,22,34.456,22z M34.456,24c0.276,0,0.5,0.224,0.5,0.5s-0.224,0.5-0.5,0.5
	s-0.5-0.224-0.5-0.5S34.18,24,34.456,24z M32.456,10c0.276,0,0.5,0.224,0.5,0.5s-0.224,0.5-0.5,0.5s-0.5-0.224-0.5-0.5
	S32.18,10,32.456,10z M32.456,12c0.276,0,0.5,0.224,0.5,0.5s-0.224,0.5-0.5,0.5s-0.5-0.224-0.5-0.5S32.18,12,32.456,12z M32.456,14
	c0.276,0,0.5,0.224,0.5,0.5s-0.224,0.5-0.5,0.5s-0.5-0.224-0.5-0.5S32.18,14,32.456,14z M32.456,16c0.276,0,0.5,0.224,0.5,0.5
	s-0.224,0.5-0.5,0.5s-0.5-0.224-0.5-0.5S32.18,16,32.456,16z M32.456,18c0.276,0,0.5,0.224,0.5,0.5s-0.224,0.5-0.5,0.5
	s-0.5-0.224-0.5-0.5S32.18,18,32.456,18z M32.456,20c0.276,0,0.5,0.224,0.5,0.5s-0.224,0.5-0.5,0.5s-0.5-0.224-0.5-0.5
	S32.18,20,32.456,20z M32.456,22c0.276,0,0.5,0.224,0.5,0.5s-0.224,0.5-0.5,0.5s-0.5-0.224-0.5-0.5S32.18,22,32.456,22z M32.456,24
	c0.276,0,0.5,0.224,0.5,0.5s-0.224,0.5-0.5,0.5s-0.5-0.224-0.5-0.5S32.18,24,32.456,24z M30.456,10c0.276,0,0.5,0.224,0.5,0.5
	s-0.224,0.5-0.5,0.5s-0.5-0.224-0.5-0.5S30.18,10,30.456,10z M30.456,12c0.276,0,0.5,0.224,0.5,0.5s-0.224,0.5-0.5,0.5
	s-0.5-0.224-0.5-0.5S30.18,12,30.456,12z M30.456,14c0.276,0,0.5,0.224,0.5,0.5s-0.224,0.5-0.5,0.5s-0.5-0.224-0.5-0.5
	S30.18,14,30.456,14z M30.456,16c0.276,0,0.5,0.224,0.5,0.5s-0.224,0.5-0.5,0.5s-0.5-0.224-0.5-0.5S30.18,16,30.456,16z M30.456,18
	c0.276,0,0.5,0.224,0.5,0.5s-0.224,0.5-0.5,0.5s-0.5-0.224-0.5-0.5S30.18,18,30.456,18z M30.456,20c0.276,0,0.5,0.224,0.5,0.5
	s-0.224,0.5-0.5,0.5s-0.5-0.224-0.5-0.5S30.18,20,30.456,20z M30.456,22c0.276,0,0.5,0.224,0.5,0.5s-0.224,0.5-0.5,0.5
	s-0.5-0.224-0.5-0.5S30.18,22,30.456,22z M30.456,24c0.276,0,0.5,0.224,0.5,0.5s-0.224,0.5-0.5,0.5s-0.5-0.224-0.5-0.5
	S30.18,24,30.456,24z M28.456,12c0.276,0,0.5,0.224,0.5,0.5s-0.224,0.5-0.5,0.5s-0.5-0.224-0.5-0.5S28.18,12,28.456,12z M28.456,14
	c0.276,0,0.5,0.224,0.5,0.5s-0.224,0.5-0.5,0.5s-0.5-0.224-0.5-0.5S28.18,14,28.456,14z M28.456,16c0.276,0,0.5,0.224,0.5,0.5
	s-0.224,0.5-0.5,0.5s-0.5-0.224-0.5-0.5S28.18,16,28.456,16z M28.456,18c0.276,0,0.5,0.224,0.5,0.5s-0.224,0.5-0.5,0.5
	s-0.5-0.224-0.5-0.5S28.18,18,28.456,18z M28.456,20c0.276,0,0.5,0.224,0.5,0.5s-0.224,0.5-0.5,0.5s-0.5-0.224-0.5-0.5
	S28.18,20,28.456,20z M28.456,22c0.276,0,0.5,0.224,0.5,0.5s-0.224,0.5-0.5,0.5s-0.5-0.224-0.5-0.5S28.18,22,28.456,22z M38.456,10
	c0.276,0,0.5,0.224,0.5,0.5s-0.224,0.5-0.5,0.5s-0.5-0.224-0.5-0.5S38.18,10,38.456,10z M38.456,12c0.276,0,0.5,0.224,0.5,0.5
	s-0.224,0.5-0.5,0.5s-0.5-0.224-0.5-0.5S38.18,12,38.456,12z M38.456,14c0.276,0,0.5,0.224,0.5,0.5s-0.224,0.5-0.5,0.5
	s-0.5-0.224-0.5-0.5S38.18,14,38.456,14z M38.456,16c0.276,0,0.5,0.224,0.5,0.5s-0.224,0.5-0.5,0.5s-0.5-0.224-0.5-0.5
	S38.18,16,38.456,16z M38.456,18c0.276,0,0.5,0.224,0.5,0.5s-0.224,0.5-0.5,0.5s-0.5-0.224-0.5-0.5S38.18,18,38.456,18z M38.456,20
	c0.276,0,0.5,0.224,0.5,0.5s-0.224,0.5-0.5,0.5s-0.5-0.224-0.5-0.5S38.18,20,38.456,20z M38.456,22c0.276,0,0.5,0.224,0.5,0.5
	s-0.224,0.5-0.5,0.5s-0.5-0.224-0.5-0.5S38.18,22,38.456,22z M38.456,24c0.276,0,0.5,0.224,0.5,0.5s-0.224,0.5-0.5,0.5
	s-0.5-0.224-0.5-0.5S38.18,24,38.456,24z M40.456,10c0.276,0,0.5,0.224,0.5,0.5s-0.224,0.5-0.5,0.5s-0.5-0.224-0.5-0.5
	S40.18,10,40.456,10z M40.456,12c0.276,0,0.5,0.224,0.5,0.5s-0.224,0.5-0.5,0.5s-0.5-0.224-0.5-0.5S40.18,12,40.456,12z M40.456,14
	c0.276,0,0.5,0.224,0.5,0.5s-0.224,0.5-0.5,0.5s-0.5-0.224-0.5-0.5S40.18,14,40.456,14z M40.456,16c0.276,0,0.5,0.224,0.5,0.5
	s-0.224,0.5-0.5,0.5s-0.5-0.224-0.5-0.5S40.18,16,40.456,16z M40.456,18c0.276,0,0.5,0.224,0.5,0.5s-0.224,0.5-0.5,0.5
	s-0.5-0.224-0.5-0.5S40.18,18,40.456,18z M40.456,20c0.276,0,0.5,0.224,0.5,0.5s-0.224,0.5-0.5,0.5s-0.5-0.224-0.5-0.5
	S40.18,20,40.456,20z M40.456,22c0.276,0,0.5,0.224,0.5,0.5s-0.224,0.5-0.5,0.5s-0.5-0.224-0.5-0.5S40.18,22,40.456,22z M40.456,24
	c0.276,0,0.5,0.224,0.5,0.5s-0.224,0.5-0.5,0.5s-0.5-0.224-0.5-0.5S40.18,24,40.456,24z M42.456,10c0.276,0,0.5,0.224,0.5,0.5
	s-0.224,0.5-0.5,0.5s-0.5-0.224-0.5-0.5S42.18,10,42.456,10z M42.456,12c0.276,0,0.5,0.224,0.5,0.5s-0.224,0.5-0.5,0.5
	s-0.5-0.224-0.5-0.5S42.18,12,42.456,12z M42.456,14c0.276,0,0.5,0.224,0.5,0.5s-0.224,0.5-0.5,0.5s-0.5-0.224-0.5-0.5
	S42.18,14,42.456,14z M42.456,16c0.276,0,0.5,0.224,0.5,0.5s-0.224,0.5-0.5,0.5s-0.5-0.224-0.5-0.5S42.18,16,42.456,16z M42.456,18
	c0.276,0,0.5,0.224,0.5,0.5s-0.224,0.5-0.5,0.5s-0.5-0.224-0.5-0.5S42.18,18,42.456,18z M42.456,20c0.276,0,0.5,0.224,0.5,0.5
	s-0.224,0.5-0.5,0.5s-0.5-0.224-0.5-0.5S42.18,20,42.456,20z M42.456,22c0.276,0,0.5,0.224,0.5,0.5s-0.224,0.5-0.5,0.5
	s-0.5-0.224-0.5-0.5S42.18,22,42.456,22z M42.456,24c0.276,0,0.5,0.224,0.5,0.5s-0.224,0.5-0.5,0.5s-0.5-0.224-0.5-0.5
	S42.18,24,42.456,24z M44.456,10c0.276,0,0.5,0.224,0.5,0.5s-0.224,0.5-0.5,0.5s-0.5-0.224-0.5-0.5S44.18,10,44.456,10z M44.456,12
	c0.276,0,0.5,0.224,0.5,0.5s-0.224,0.5-0.5,0.5s-0.5-0.224-0.5-0.5S44.18,12,44.456,12z M44.456,14c0.276,0,0.5,0.224,0.5,0.5
	s-0.224,0.5-0.5,0.5s-0.5-0.224-0.5-0.5S44.18,14,44.456,14z M44.456,16c0.276,0,0.5,0.224,0.5,0.5s-0.224,0.5-0.5,0.5
	s-0.5-0.224-0.5-0.5S44.18,16,44.456,16z M44.456,18c0.276,0,0.5,0.224,0.5,0.5s-0.224,0.5-0.5,0.5s-0.5-0.224-0.5-0.5
	S44.18,18,44.456,18z M44.456,20c0.276,0,0.5,0.224,0.5,0.5s-0.224,0.5-0.5,0.5s-0.5-0.224-0.5-0.5S44.18,20,44.456,20z M44.456,22
	c0.276,0,0.5,0.224,0.5,0.5s-0.224,0.5-0.5,0.5s-0.5-0.224-0.5-0.5S44.18,22,44.456,22z M44.456,24c0.276,0,0.5,0.224,0.5,0.5
	s-0.224,0.5-0.5,0.5s-0.5-0.224-0.5-0.5S44.18,24,44.456,24z M46.456,14c0.276,0,0.5,0.224,0.5,0.5s-0.224,0.5-0.5,0.5
	s-0.5-0.224-0.5-0.5S46.18,14,46.456,14z M46.456,16c0.276,0,0.5,0.224,0.5,0.5s-0.224,0.5-0.5,0.5s-0.5-0.224-0.5-0.5
	S46.18,16,46.456,16z M46.456,18c0.276,0,0.5,0.224,0.5,0.5s-0.224,0.5-0.5,0.5s-0.5-0.224-0.5-0.5S46.18,18,46.456,18z M46.456,20
	c0.276,0,0.5,0.224,0.5,0.5s-0.224,0.5-0.5,0.5s-0.5-0.224-0.5-0.5S46.18,20,46.456,20z M46.456,22c0.276,0,0.5,0.224,0.5,0.5
	s-0.224,0.5-0.5,0.5s-0.5-0.224-0.5-0.5S46.18,22,46.456,22z"/>
</svg>
