<?xml version="1.0" encoding="utf-8"?>
<!-- Generator: Adobe Illustrator 15.0.0, SVG Export Plug-In . SVG Version: 6.00 Build 0)  -->
<!DOCTYPE svg PUBLIC "-//W3C//DTD SVG 1.1//EN" "http://www.w3.org/Graphics/SVG/1.1/DTD/svg11.dtd">
<svg version="1.1" id="Layer_1" xmlns="http://www.w3.org/2000/svg" xmlns:xlink="http://www.w3.org/1999/xlink" x="0px" y="0px"
	 width="76px" height="66px" viewBox="0 0 76 66" enable-background="new 0 0 76 66" xml:space="preserve">
<rect x="16" y="23" fill="#64A01F" width="8" height="14"/>
<polygon fill="#FFFFFF" points="17,36 23,36 23,32.821 23,26.799 23,24 17,24 "/>
<polygon fill="#64A01F" points="25,37 25,23 36,12 36,48 "/>
<polygon fill="#FFFFFF" points="26,36.586 26,23.414 35,14.414 35,45.586 "/>
<path fill="#64A01F" d="M36.182,35.343l1.172-1.042c1.422-1.266,2.238-3.07,2.238-4.952c0-1.751-0.682-3.406-1.92-4.658l-1.09-1.104
	l3.393-3.395l1.104,1.114c2.138,2.16,3.313,5.016,3.313,8.042c0,3.246-1.399,6.355-3.844,8.531l-1.158,1.033L36.182,35.343z"/>
<path fill="#FFFFFF" d="M40.368,22.011l-0.396-0.4l-1.979,1.98l0.392,0.396c1.424,1.44,2.208,3.345,2.208,5.361
	c0,2.167-0.938,4.244-2.573,5.699l-0.42,0.374l1.871,2.082l0.416-0.371c2.229-1.985,3.508-4.823,3.508-7.784
	C43.393,26.586,42.318,23.981,40.368,22.011z"/>
<path fill="#64A01F" d="M40.26,39.882l1.164-1.044c2.709-2.417,4.262-5.876,4.262-9.489c0-3.377-1.313-6.56-3.703-8.963
	l-1.096-1.104l3.396-3.394l1.104,1.11c3.288,3.31,5.102,7.695,5.102,12.351c0,4.976-2.135,9.737-5.857,13.064l-1.16,1.039
	L40.26,39.882z"/>
<path fill="#FFFFFF" d="M44.676,17.703l-0.396-0.399l-1.979,1.98l0.395,0.396c2.574,2.592,3.994,6.025,3.994,9.668
	c0,3.896-1.674,7.628-4.596,10.234l-0.418,0.375l1.871,2.083l0.416-0.373c3.514-3.14,5.523-7.629,5.523-12.319
	C49.486,24.96,47.777,20.824,44.676,17.703z"/>
<path fill="#64A01F" d="M44.611,44.725l1.162-1.043c4.084-3.654,6.425-8.879,6.425-14.333c0-5.113-1.993-9.931-5.61-13.565
	l-1.098-1.105l3.394-3.392l1.103,1.106C54.51,16.936,57,22.957,57,29.349c0,6.815-2.923,13.342-8.02,17.907l-1.16,1.038
	L44.611,44.725z"/>
<path fill="#FFFFFF" d="M49.277,13.099l-0.396-0.397l-1.98,1.979l0.396,0.397c3.806,3.823,5.902,8.892,5.902,14.271
	c0,5.738-2.462,11.233-6.757,15.077l-0.418,0.375l1.873,2.083l0.416-0.373C53.198,42.136,56,35.88,56,29.349
	C56,23.223,53.611,17.452,49.277,13.099z"/>
</svg>
