<?xml version="1.0" encoding="utf-8"?>
<!-- Generator: Adobe Illustrator 16.0.0, SVG Export Plug-In . SVG Version: 6.00 Build 0)  -->
<!DOCTYPE svg PUBLIC "-//W3C//DTD SVG 1.1//EN" "http://www.w3.org/Graphics/SVG/1.1/DTD/svg11.dtd">
<svg version="1.1" id="Layer_1" xmlns="http://www.w3.org/2000/svg" xmlns:xlink="http://www.w3.org/1999/xlink" x="0px" y="0px"
	 width="76px" height="66px" viewBox="0 0 76 66" enable-background="new 0 0 76 66" xml:space="preserve">
<path fill="#FFFFFF" d="M53.707,24.263c-2.123,0-3.852-1.728-3.852-3.852c0-2.123,1.729-3.85,3.852-3.85s3.852,1.727,3.852,3.85
	C57.559,22.535,55.83,24.263,53.707,24.263z"/>
<path fill="#A8721B" d="M53.707,16.937c1.918,0,3.477,1.556,3.477,3.475c0,1.92-1.559,3.477-3.477,3.477
	c-1.919,0-3.477-1.557-3.477-3.477S51.788,16.937,53.707,16.937 M53.707,16.187c-2.33,0-4.227,1.896-4.227,4.225
	c0,2.33,1.896,4.227,4.227,4.227s4.227-1.896,4.227-4.227C57.934,18.082,56.037,16.187,53.707,16.187L53.707,16.187z"/>
<path fill="#FFFFFF" d="M51.066,52.996c-2.059,0-2.582-1.479-2.604-1.54c-0.021-0.062-0.024-0.125-0.014-0.188l1.378-7.688
	l-4.229-4.021l-3.058,5.023c-0.047,0.078-0.122,0.136-0.209,0.163c-0.291,0.09-7.133,2.213-7.696,2.364
	c-0.082,0.021-0.167,0.033-0.252,0.033c-0.744,0-1.466-0.846-1.839-2.153c-0.27-0.947-0.062-1.603,0.16-1.982
	c0.256-0.438,0.664-0.746,1.149-0.862l5.569-1.362c0.313-1.679,2.165-11.141,4.294-13.382c1.187-1.247,1.457-1.852,1.519-2.088
	l-4.676-0.219l-5.083,3.35c-0.088,0.047-0.53,0.258-1.097,0.258c-0.678,0-1.246-0.303-1.642-0.876
	c-0.814-1.18-0.167-2.201,0.29-2.577l6.036-4.143c0.063-0.043,0.137-0.065,0.211-0.065c0.004,0,0.008,0,0.011,0
	c1.429,0.04,8.597,0.257,9.444,0.62c0.873,0.374,5.371,4.594,5.756,6.269c0.268,1.157,1.201,2.566,1.56,3.079l5.295-1.239h-0.001
	c-0.009,0,0.243-0.093,0.575-0.093c0.392,0,1.104,0.137,1.489,1.052c0.171,0.407,0.18,0.816,0.021,1.183
	c-0.298,0.7-1.072,1.015-1.16,1.048l-7.469,1.782c-0.027,0.007-0.059,0.01-0.087,0.01c-0.108,0-0.215-0.048-0.287-0.134
	l-2.237-2.665c-1.524,1.239-3.463,3.114-3.463,3.837c0,0.691,3.172,3.752,6.108,6.191c0.103,0.084,0.151,0.217,0.13,0.348
	l-1.413,8.716C53.424,51.723,52.749,52.996,51.066,52.996z"/>
<path fill="#A8721B" d="M39.273,21.413c0,0,8.481,0.236,9.309,0.59c0.824,0.354,5.186,4.477,5.538,6.008
	c0.353,1.531,1.767,3.417,1.767,3.417l5.538-1.296c0,0,0.209-0.083,0.488-0.083c0.369,0,0.858,0.146,1.144,0.822
	c0.5,1.188-0.927,1.735-0.927,1.735l-7.421,1.767l-2.475-2.945c0,0-3.889,3.063-3.889,4.358s6.242,6.479,6.242,6.479l-1.413,8.715
	c0,0-0.297,1.641-2.108,1.641c-1.813,0-2.25-1.286-2.25-1.286l1.414-7.89l-4.713-4.479l-3.297,5.421c0,0-7.122,2.209-7.686,2.362
	c-0.05,0.015-0.102,0.021-0.154,0.021c-0.532,0-1.142-0.701-1.478-1.883c-0.369-1.297,0.225-2.182,1.037-2.38s5.805-1.42,5.805-1.42
	s2.003-11.074,4.239-13.43c2.238-2.356,1.531-2.709,1.531-2.709l-5.063-0.236l-5.184,3.416c0,0-0.396,0.196-0.891,0.196
	c-0.434,0-0.944-0.15-1.333-0.714c-0.834-1.208,0.22-2.074,0.22-2.074L39.273,21.413 M39.273,20.663
	c-0.15,0-0.299,0.046-0.424,0.132l-6.009,4.123c-0.018,0.012-0.035,0.025-0.052,0.039c-0.638,0.524-1.26,1.776-0.361,3.079
	c0.462,0.67,1.155,1.038,1.95,1.038c0.652,0,1.167-0.247,1.224-0.274c0.027-0.014,0.054-0.029,0.079-0.046l4.98-3.281l3.993,0.187
	c-0.19,0.306-0.547,0.781-1.213,1.481c-2.127,2.239-3.899,10.979-4.346,13.333l-5.333,1.305c-0.585,0.143-1.077,0.512-1.384,1.039
	c-0.366,0.629-0.436,1.437-0.197,2.272c0.426,1.497,1.269,2.429,2.199,2.429c0.119,0,0.237-0.017,0.351-0.047
	c0.57-0.154,7.417-2.279,7.708-2.369c0.177-0.056,0.324-0.17,0.418-0.326l2.814-4.627l3.746,3.562l-1.343,7.491
	c-0.022,0.125-0.013,0.254,0.028,0.374c0.023,0.073,0.637,1.795,2.959,1.795c1.93,0,2.707-1.476,2.848-2.256l1.416-8.729
	c0.042-0.263-0.057-0.527-0.262-0.697c-2.703-2.244-5.729-5.125-5.969-5.924c0.081-0.502,1.426-1.947,3.034-3.29l2,2.381
	c0.146,0.172,0.354,0.268,0.574,0.268c0.06,0,0.116-0.007,0.174-0.021l7.421-1.767c0.032-0.008,0.064-0.018,0.096-0.029
	c0.104-0.04,1.013-0.409,1.371-1.251c0.196-0.463,0.188-0.973-0.021-1.476C63.4,29.767,62.732,29.3,61.91,29.3
	c-0.319,0-0.577,0.071-0.699,0.112l-5.006,1.171c-0.405-0.601-1.135-1.773-1.357-2.739c-0.42-1.827-4.965-6.097-5.974-6.529
	c-0.862-0.37-6.989-0.578-9.582-0.65C39.289,20.663,39.281,20.663,39.273,20.663L39.273,20.663z"/>
<path fill="#FFFFFF" d="M30.272,42.507h-1.811c-0.553,0-1,0.447-1,1c0,0.554,0.447,1,1,1h1.92L30.272,42.507z M37.59,39.057
	c0.014-0.067,0.029-0.146,0.044-0.217H24.462c-0.553,0-1,0.447-1,1s0.447,1,1,1h6.11L37.59,39.057z M38.457,35.174H21.462
	c-0.553,0-1,0.448-1,1c0,0.553,0.447,1,1,1h16.525C38.128,36.54,38.285,35.867,38.457,35.174z M39.486,31.507H18.462
	c-0.553,0-1,0.448-1,1c0,0.553,0.447,1,1,1h20.433C39.079,32.836,39.275,32.163,39.486,31.507z M40.064,29.841
	c0.271-0.721,0.558-1.398,0.857-2h-0.675l-3.034,2H40.064z M31.888,27.841H15.462c-0.553,0-1,0.447-1,1c0,0.553,0.447,1,1,1h17.972
	L31.888,27.841z M29.671,24.972l1.164-0.798H14.462c-0.553,0-1,0.448-1,1c0,0.552,0.447,1,1,1h16.139L29.671,24.972z"/>
</svg>
