<?xml version="1.0" encoding="utf-8"?>
<!-- Generator: Adobe Illustrator 16.0.0, SVG Export Plug-In . SVG Version: 6.00 Build 0)  -->
<!DOCTYPE svg PUBLIC "-//W3C//DTD SVG 1.1//EN" "http://www.w3.org/Graphics/SVG/1.1/DTD/svg11.dtd">
<svg version="1.1" id="Layer_1" xmlns="http://www.w3.org/2000/svg" xmlns:xlink="http://www.w3.org/1999/xlink" x="0px" y="0px"
	 width="76px" height="66px" viewBox="0 0 76 66" enable-background="new 0 0 76 66" xml:space="preserve">
<path fill="#FFFFFF" d="M47.816,18.938c-1.588,0-3.034-0.996-3.601-2.479c-0.366-0.961-0.337-2.007,0.083-2.945
	c0.422-0.938,1.182-1.657,2.143-2.023c0.44-0.168,0.902-0.254,1.371-0.254c1.586,0,3.033,0.996,3.599,2.479
	c0.366,0.961,0.337,2.007-0.084,2.946c-0.421,0.938-1.181,1.658-2.142,2.024C48.746,18.854,48.284,18.938,47.816,18.938z"/>
<path fill="#A8721B" d="M47.813,11.612c1.4-0.001,2.721,0.851,3.248,2.236c0.686,1.793-0.217,3.803-2.009,4.486
	c-0.407,0.155-0.825,0.229-1.235,0.229c-1.4,0-2.721-0.853-3.25-2.238c-0.685-1.793,0.217-3.801,2.01-4.484
	C46.982,11.686,47.402,11.612,47.813,11.612 M47.814,10.862L47.814,10.862c-0.516,0-1.021,0.093-1.506,0.277
	c-1.055,0.402-1.889,1.191-2.351,2.221c-0.462,1.03-0.494,2.178-0.092,3.232c0.62,1.627,2.208,2.721,3.95,2.721
	c0.514,0,1.02-0.094,1.502-0.277c1.055-0.402,1.89-1.191,2.352-2.222c0.461-1.03,0.494-2.179,0.092-3.233
	C51.143,11.955,49.555,10.862,47.814,10.862L47.814,10.862z"/>
<path fill="#FFFFFF" d="M29.568,30.965c0.002-0.443,0.006-0.983,0.016-1.583h-9.09c-0.553,0-1,0.448-1,1c0,0.553,0.447,1,1,1h8.673
	L29.568,30.965z M28.77,24.382h-3.471H24.26h-7.766c-0.553,0-1,0.448-1,1c0,0.553,0.447,1,1,1h12.174
	C28.694,25.729,28.727,25.059,28.77,24.382z"/>
<path fill="#FFFFFF" d="M55.232,51.796c-1.991,0-3.084-2.089-3.129-2.178l-3.045-7.496l-4.091-5.245l-0.542,4.352
	c-0.009,0.07-0.037,0.137-0.08,0.189l-6.285,7.771c-0.023,0.028-0.051,0.055-0.082,0.076c-0.042,0.026-1.039,0.688-2.123,0.689
	c-0.605,0-1.122-0.202-1.535-0.6c-1.406-1.351-0.563-3.299-0.526-3.381c0.018-0.039,0.042-0.076,0.073-0.106l5.827-6.048
	c-0.006-1.401,0.007-11.177,1.207-14.052c0.435-1.04,0.533-1.853,0.277-2.287c-0.119-0.203-0.296-0.286-0.402-0.32l-4.316,2.301
	l-2.88,4.209c-0.028,0.038-0.511,0.68-1.344,0.68c-0.352,0-0.708-0.114-1.061-0.341c-1.368-0.881-1.08-2.28-1.066-2.339
	c0.011-0.053,0.034-0.103,0.066-0.146l4.061-5.41c0.023-0.03,0.051-0.058,0.083-0.08c0.203-0.144,4.995-3.522,8.314-3.522
	c0.354,0,0.688,0.039,0.987,0.116c0.688,0.178,6.748,1.773,7.745,3.262c0.772,1.151,2.299,2.725,2.569,3l4.623,2.375
	c0.039,0.017,1.4,0.628,1.762,1.657c0.148,0.427,0.113,0.856-0.106,1.278c-0.389,0.744-1.043,1.154-1.842,1.154
	c-0.478,0-0.837-0.143-0.876-0.159l-4.764-2.173c-0.039-0.018-0.074-0.042-0.105-0.072l-3.348-3.272
	c-0.924,2.364-1.969,5.599-1.707,6.287c0.324,0.85,3.982,5.64,6.361,8.65l3.527,8.247c0.023,0.064,0.357,1.053-0.123,1.89
	c-0.295,0.515-0.816,0.847-1.552,0.989C55.596,51.779,55.41,51.796,55.232,51.796z"/>
<path fill="#A8721B" d="M42.633,18.888c0.315,0,0.615,0.032,0.895,0.104c0.867,0.224,6.652,1.802,7.527,3.107
	c0.875,1.304,2.654,3.097,2.654,3.097l4.678,2.403c0,0,2.243,0.99,1.493,2.428c-0.403,0.774-1.024,0.953-1.51,0.953
	c-0.416,0-0.733-0.131-0.733-0.131l-4.75-2.167l-3.75-3.666c0,0-2.38,5.871-1.916,7.083c0.461,1.211,6.416,8.749,6.416,8.749
	l3.479,8.162c0,0,0.683,1.959-1.4,2.363c-0.166,0.032-0.326,0.047-0.48,0.047c-1.784,0-2.795-1.975-2.795-1.975l-3.053-7.514
	l-4.678-6l-0.654,5.25l-6.284,7.771c0,0-0.931,0.626-1.913,0.626c-0.441,0-0.893-0.126-1.275-0.493
	c-1.232-1.185-0.443-2.958-0.443-2.958l5.933-6.156c0,0-0.074-11.061,1.179-14.059c1.252-3-0.529-3.146-0.529-3.146l-4.517,2.407
	l-2.933,4.285c0,0-0.381,0.517-1.034,0.517c-0.249,0-0.536-0.074-0.857-0.281c-1.165-0.75-0.903-1.943-0.903-1.943l4.061-5.41
	C34.536,22.341,39.395,18.888,42.633,18.888 M42.633,18.138L42.633,18.138c-3.438,0-8.325,3.445-8.532,3.592
	c-0.063,0.045-0.119,0.1-0.165,0.161l-4.061,5.41c-0.064,0.086-0.11,0.185-0.133,0.29c-0.139,0.632-0.036,1.92,1.23,2.734
	c0.413,0.266,0.838,0.4,1.263,0.4c1.003,0,1.576-0.737,1.638-0.821l2.844-4.155l4.064-2.166c0.027,0.023,0.056,0.056,0.078,0.098
	c0.068,0.122,0.246,0.624-0.305,1.943c-1.191,2.852-1.24,12.192-1.236,14.046l-5.722,5.938c-0.061,0.063-0.11,0.137-0.146,0.217
	c-0.041,0.092-0.984,2.273,0.609,3.804c0.479,0.46,1.1,0.702,1.795,0.702c1.177,0,2.217-0.678,2.332-0.754
	c0.062-0.041,0.117-0.092,0.164-0.15l6.284-7.771c0.089-0.107,0.144-0.239,0.161-0.379l0.432-3.453l3.5,4.49l3.015,7.418
	c0.008,0.021,0.017,0.039,0.026,0.06c0.051,0.097,1.244,2.382,3.463,2.382c0.205,0,0.416-0.021,0.625-0.061
	c1.053-0.205,1.563-0.75,1.805-1.172c0.556-0.965,0.203-2.055,0.16-2.176c-0.006-0.016-0.012-0.031-0.019-0.047l-3.478-8.162
	c-0.026-0.062-0.061-0.117-0.102-0.171c-2.853-3.61-6.031-7.835-6.306-8.552c-0.158-0.554,0.597-3.097,1.501-5.487l2.941,2.874
	c0.062,0.061,0.134,0.11,0.213,0.146l4.75,2.167c0.072,0.03,0.496,0.198,1.045,0.198c0.945,0,1.718-0.481,2.175-1.356
	c0.267-0.51,0.31-1.055,0.128-1.575c-0.406-1.161-1.822-1.814-1.982-1.886l-4.53-2.328c-0.353-0.362-1.763-1.829-2.483-2.903
	c-1.052-1.569-6.818-3.121-7.963-3.416C43.383,18.181,43.02,18.138,42.633,18.138L42.633,18.138z"/>
</svg>
