<?xml version="1.0" encoding="utf-8"?>
<!-- Generator: Adobe Illustrator 16.0.0, SVG Export Plug-In . SVG Version: 6.00 Build 0)  -->
<!DOCTYPE svg PUBLIC "-//W3C//DTD SVG 1.1//EN" "http://www.w3.org/Graphics/SVG/1.1/DTD/svg11.dtd">
<svg version="1.1" id="Layer_1" xmlns="http://www.w3.org/2000/svg" xmlns:xlink="http://www.w3.org/1999/xlink" x="0px" y="0px"
	 width="76px" height="66px" viewBox="0 0 76 66" enable-background="new 0 0 76 66" xml:space="preserve">
<g>
	<circle fill="#FFFFFF" cx="36.368" cy="14.588" r="3.475"/>
	<path fill="#FFFFFF" d="M46.255,29.689c0,0,1.124,1.756-0.042,2.464s-2.163,0.038-2.163,0.038s-3.149-4.121-3.961-5.642
		c-0.448-0.838-1.373-3.546-1.373-3.546s-0.198,7.218,0.265,8.431c0.463,1.211,4.418,8.75,4.418,8.75l3.27,7.961
		c0,0,1.088,2.234-1.245,3.018s-3.196-1.904-3.196-1.904l-3.078-7.99l-3.679-7.134l-1.349,7.761l-2.002,7.453
		c0,0-0.529,1.814-2.737,1.814s-2.05-1.698-2.05-1.698l2.05-8.397c0,0,1.949-11.904,1.949-15.154c0-1.069-0.47-3.507-0.47-3.507
		c-0.688,0.688-1.798,2.021-2.181,3.288c-0.377,1.242-0.61,6.156-0.61,6.156s-0.271,1.221-1.729,1.221s-1.487-1.842-1.487-1.842
		s0.573-4.646,1.036-6.272c0.59-2.07,2.607-6.286,5.85-6.318c0.896-0.008,6.893,0.019,8.074,1.054
		c1.185,1.033,2.063,3.885,2.902,5.318C43.378,26.143,46.255,29.689,46.255,29.689z"/>
</g>
<g>
	<path fill="#A8721B" d="M36.366,11.113c1.077,0,2.14,0.499,2.817,1.438c1.125,1.555,0.775,3.729-0.779,4.853
		c-0.615,0.444-1.327,0.659-2.033,0.659c-1.078,0-2.141-0.499-2.82-1.439c-1.124-1.555-0.774-3.727,0.781-4.852
		C34.948,11.328,35.661,11.113,36.366,11.113 M36.367,10.363L36.367,10.363c-0.894,0-1.749,0.277-2.474,0.802
		c-1.888,1.365-2.314,4.012-0.949,5.898c0.792,1.096,2.073,1.75,3.428,1.75c0.893,0,1.748-0.277,2.474-0.802
		c0.913-0.661,1.516-1.639,1.694-2.753c0.181-1.115-0.086-2.232-0.748-3.146C39.001,11.018,37.721,10.363,36.367,10.363
		L36.367,10.363z"/>
	<path fill="#A8721B" d="M31.956,18.636c1.392,0,6.746,0.083,7.854,1.055c1.185,1.033,2.063,3.885,2.902,5.318
		c0.664,1.134,3.541,4.681,3.541,4.681s1.124,1.756-0.042,2.464c-0.403,0.245-0.786,0.325-1.114,0.325
		c-0.621,0-1.049-0.287-1.049-0.287s-3.15-4.121-3.961-5.642c-0.449-0.838-1.373-3.546-1.373-3.546s-0.199,7.218,0.264,8.431
		c0.463,1.211,4.418,8.749,4.418,8.749l3.271,7.963c0,0,1.088,2.233-1.245,3.017c-0.297,0.101-0.568,0.144-0.818,0.144
		c-1.721,0-2.379-2.048-2.379-2.048l-3.076-7.989l-3.681-7.135l-1.349,7.762l-2.002,7.451c0,0-0.529,1.815-2.737,1.815
		s-2.05-1.698-2.05-1.698l2.05-8.396c0,0,1.949-11.905,1.949-15.155c0-1.069-0.47-3.507-0.47-3.507
		c-0.688,0.688-1.798,2.021-2.181,3.288c-0.377,1.242-0.61,6.156-0.61,6.156s-0.271,1.221-1.729,1.221s-1.487-1.842-1.487-1.842
		s0.573-4.646,1.036-6.272c0.59-2.07,2.607-6.286,5.85-6.318C31.792,18.636,31.866,18.636,31.956,18.636 M31.956,17.886
		l-0.226,0.001c-3.656,0.036-5.893,4.505-6.564,6.863c-0.473,1.663-1.035,6.193-1.059,6.386c-0.005,0.034-0.006,0.069-0.006,0.104
		c0.015,0.893,0.5,2.58,2.237,2.58c1.629,0,2.322-1.183,2.462-1.808c0.009-0.042,0.015-0.085,0.017-0.128
		c0.063-1.341,0.292-5.028,0.579-5.974c0.178-0.588,0.562-1.232,0.991-1.812c0.104,0.679,0.191,1.389,0.191,1.813
		c0,3.077-1.829,14.356-1.935,15.006L26.6,49.286c-0.009,0.034-0.015,0.071-0.019,0.108c-0.009,0.098-0.07,0.976,0.583,1.691
		c0.499,0.547,1.243,0.825,2.214,0.825c2.191,0,3.22-1.541,3.457-2.354l2.007-7.469c0.006-0.021,0.011-0.044,0.015-0.066
		l0.966-5.561l2.638,5.113l3.063,7.951c0.021,0.065,0.838,2.527,3.078,2.527c0.342,0,0.698-0.062,1.059-0.182
		c1.117-0.375,1.602-1.045,1.811-1.542c0.491-1.175-0.063-2.381-0.13-2.515l-3.25-7.918c-0.009-0.021-0.019-0.043-0.028-0.063
		c-1.096-2.086-4.016-7.709-4.383-8.668c-0.16-0.424-0.242-2.169-0.257-4.271c0.002,0.003,0.004,0.006,0.005,0.009
		c0.829,1.555,3.896,5.572,4.026,5.743c0.05,0.064,0.108,0.121,0.178,0.166c0.063,0.043,0.64,0.415,1.468,0.415
		c0.522,0,1.028-0.146,1.504-0.435c0.436-0.264,0.725-0.66,0.836-1.144c0.248-1.071-0.469-2.236-0.553-2.365
		c-0.016-0.023-0.031-0.046-0.05-0.068c-0.79-0.974-2.955-3.697-3.476-4.587c-0.271-0.461-0.557-1.107-0.86-1.793
		c-0.638-1.439-1.298-2.928-2.196-3.712C39.074,18.047,34.546,17.886,31.956,17.886L31.956,17.886z"/>
</g>
</svg>
